<svg width="22" height="22" viewBox="0 0 22 22" fill="none" xmlns="http://www.w3.org/2000/svg">
<path d="M11.4734 7.40503C11.4734 8.26831 10.7736 8.96813 9.91027 8.96813C9.04699 8.96813 8.34717 8.26831 8.34717 7.40503C8.34717 6.54175 9.04699 5.84192 9.91027 5.84192C10.7736 5.84192 11.4734 6.54175 11.4734 7.40503Z" fill="#E8B73B"/>
<path fill-rule="evenodd" clip-rule="evenodd" d="M11.9317 7.40499C11.9317 8.5214 11.0267 9.42643 9.9103 9.42643C8.79388 9.42643 7.88885 8.5214 7.88885 7.40499C7.88885 6.28857 8.79388 5.38354 9.9103 5.38354C11.0267 5.38354 11.9317 6.28857 11.9317 7.40499ZM9.9103 8.96809C10.7736 8.96809 11.4734 8.26827 11.4734 7.40499C11.4734 6.54171 10.7736 5.84188 9.9103 5.84188C9.04702 5.84188 8.34719 6.54171 8.34719 7.40499C8.34719 8.26827 9.04702 8.96809 9.9103 8.96809Z" fill="#B6860D"/>
<path d="M9.91034 6.74573C9.91034 6.97043 9.72818 7.15259 9.50348 7.15259C9.27878 7.15259 9.09662 6.97043 9.09662 6.74573C9.09662 6.52102 9.27878 6.33887 9.50348 6.33887C9.72818 6.33887 9.91034 6.52102 9.91034 6.74573Z" fill="#FED97A"/>
<path d="M17.8173 10.4192C17.8173 11.2825 17.1174 11.9823 16.2541 11.9823C15.3909 11.9823 14.691 11.2825 14.691 10.4192C14.691 9.55591 15.3909 8.85608 16.2541 8.85608C17.1174 8.85608 17.8173 9.55591 17.8173 10.4192Z" fill="#975A2E"/>
<path fill-rule="evenodd" clip-rule="evenodd" d="M18.2756 10.4191C18.2756 11.5356 17.3706 12.4406 16.2542 12.4406C15.1378 12.4406 14.2327 11.5356 14.2327 10.4191C14.2327 9.30273 15.1378 8.39771 16.2542 8.39771C17.3706 8.39771 18.2756 9.30273 18.2756 10.4191ZM16.2542 11.9823C17.1174 11.9823 17.8173 11.2824 17.8173 10.4191C17.8173 9.55587 17.1174 8.85604 16.2542 8.85604C15.3909 8.85604 14.6911 9.55587 14.6911 10.4191C14.6911 11.2824 15.3909 11.9823 16.2542 11.9823Z" fill="#773F17"/>
<path d="M19.1723 13.6898C18.2875 13.8574 16.0244 12.99 15.0034 12.5354C13.4217 11.5053 12.7299 10.2889 12.5817 9.80944C13.6756 8.30115 15.4131 9.15647 16.1452 9.77267C17.7221 9.56186 18.1434 10.4874 18.1569 10.9765C19.5056 11.0713 19.7294 11.8911 19.6728 12.2892C20.0467 12.6887 20.2782 13.4804 19.1723 13.6898Z" fill="#A8E12D"/>
<path fill-rule="evenodd" clip-rule="evenodd" d="M19.919 13.6127C19.7512 13.7568 19.5167 13.8579 19.215 13.915C18.9506 13.9651 18.6088 13.9355 18.2498 13.8695C17.8847 13.8023 17.4772 13.6925 17.0702 13.5646C16.2561 13.3087 15.4267 12.9748 14.9102 12.7448C14.8991 12.7399 14.8885 12.7341 14.8783 12.7275C13.2579 11.6722 12.5288 10.4143 12.3628 9.87718C12.3415 9.80827 12.3539 9.73336 12.3962 9.67497C13.0014 8.8405 13.8006 8.65469 14.5341 8.76796C15.2042 8.87144 15.8208 9.22198 16.2144 9.53354C16.9968 9.44896 17.5372 9.63246 17.8883 9.93976C18.1716 10.1877 18.3123 10.4998 18.3633 10.7667C18.9757 10.8445 19.3768 11.077 19.6194 11.3743C19.8465 11.6526 19.9175 11.9673 19.9091 12.212C20.0921 12.4382 20.2451 12.7612 20.205 13.0888C20.1813 13.2816 20.0909 13.465 19.919 13.6127ZM19.75 13.033C19.7721 12.8529 19.6682 12.6197 19.5054 12.4458C19.458 12.3951 19.4361 12.3257 19.4459 12.2569C19.4663 12.1135 19.4366 11.8753 19.2643 11.6641C19.0963 11.4581 18.7688 11.2493 18.1408 11.2052C18.0232 11.197 17.9311 11.1008 17.9278 10.9829C17.9225 10.7917 17.8351 10.5023 17.5864 10.2846C17.344 10.0725 16.9162 9.90088 16.1755 9.99989C16.1116 10.0084 16.047 9.98963 15.9976 9.94807C15.6527 9.65773 15.073 9.31494 14.4642 9.22093C13.9012 9.134 13.3157 9.25713 12.8393 9.8497C13.0341 10.3381 13.6971 11.4067 15.1133 12.3335C15.6189 12.5579 16.4225 12.8806 17.2077 13.1274C17.6047 13.2522 17.9927 13.3562 18.3327 13.4187C18.6788 13.4824 18.9517 13.4984 19.1297 13.4647C19.3809 13.4171 19.5322 13.3407 19.6204 13.265C19.7044 13.1929 19.7401 13.1141 19.75 13.033Z" fill="#5E9D0D"/>
<path d="M14.8288 8.09253C14.8288 8.95581 14.129 9.65563 13.2657 9.65563C12.4024 9.65563 11.7026 8.95581 11.7026 8.09253C11.7026 7.22925 12.4024 6.52942 13.2657 6.52942C14.129 6.52942 14.8288 7.22925 14.8288 8.09253Z" fill="#975A2E"/>
<path fill-rule="evenodd" clip-rule="evenodd" d="M15.2871 8.09248C15.2871 9.2089 14.3821 10.1139 13.2657 10.1139C12.1493 10.1139 11.2443 9.2089 11.2443 8.09248C11.2443 6.97607 12.1493 6.07104 13.2657 6.07104C14.3821 6.07104 15.2871 6.97607 15.2871 8.09248ZM13.2657 9.65559C14.129 9.65559 14.8288 8.95577 14.8288 8.09248C14.8288 7.22921 14.129 6.52938 13.2657 6.52938C12.4024 6.52938 11.7026 7.22921 11.7026 8.09248C11.7026 8.95577 12.4024 9.65559 13.2657 9.65559Z" fill="#773F17"/>
<path d="M13.2657 7.34542C13.2657 7.61863 13.0442 7.84012 12.771 7.84012C12.4978 7.84012 12.2763 7.61863 12.2763 7.34542C12.2763 7.0722 12.4978 6.85071 12.771 6.85071C13.0442 6.85071 13.2657 7.0722 13.2657 7.34542Z" fill="#CA7A3F"/>
<path d="M6.6889 10.1139C6.6889 10.9772 5.98907 11.677 5.12579 11.677C4.26251 11.677 3.56268 10.9772 3.56268 10.1139C3.56268 9.25061 4.26251 8.55078 5.12579 8.55078C5.98907 8.55078 6.6889 9.25061 6.6889 10.1139Z" fill="#975A2E"/>
<path fill-rule="evenodd" clip-rule="evenodd" d="M7.14719 10.114C7.14719 11.2304 6.24216 12.1354 5.12575 12.1354C4.00934 12.1354 3.10431 11.2304 3.10431 10.114C3.10431 8.99756 4.00934 8.09253 5.12575 8.09253C6.24216 8.09253 7.14719 8.99756 7.14719 10.114ZM5.12575 11.6771C5.98903 11.6771 6.68886 10.9772 6.68886 10.114C6.68886 9.25069 5.98903 8.55086 5.12575 8.55086C4.26247 8.55086 3.56264 9.25069 3.56264 10.114C3.56264 10.9772 4.26247 11.6771 5.12575 11.6771Z" fill="#773F17"/>
<path d="M14.5664 11.0967C13.7045 10.4863 13.4957 9.29953 14.1001 8.44604C14.7046 7.59255 15.8933 7.39553 16.7553 8.00598L14.5664 11.0967Z" fill="#FA5252"/>
<path fill-rule="evenodd" clip-rule="evenodd" d="M14.3015 11.4708C14.5081 11.6171 14.7942 11.5682 14.9405 11.3616L17.1293 8.27089C17.2756 8.06431 17.2268 7.77825 17.0202 7.63196C15.9551 6.87769 14.4793 7.11762 13.7261 8.18116C12.9729 9.24471 13.2365 10.7165 14.3015 11.4708ZM14.224 10.7872C14.3232 10.9013 14.4375 11.0054 14.5664 11.0968L16.7553 8.00599C16.6264 7.91469 16.4901 7.84145 16.3496 7.78576C15.5508 7.46917 14.6141 7.72022 14.1001 8.44605C13.5861 9.17189 13.6602 10.1387 14.224 10.7872Z" fill="#BC2121"/>
<path d="M4.8467 7.868C5.10554 6.84396 6.13736 6.22159 7.15131 6.47789C8.16527 6.73419 8.7774 7.7721 8.51855 8.79614L4.8467 7.868Z" fill="#FA5252"/>
<path fill-rule="evenodd" clip-rule="evenodd" d="M4.40233 7.75564C4.3403 8.00105 4.48896 8.25029 4.73437 8.31232L8.40623 9.24046C8.65164 9.3025 8.90087 9.15384 8.96291 8.90843C9.28274 7.64313 8.52713 6.35287 7.26363 6.03349C6.00012 5.71411 4.72216 6.49035 4.40233 7.75564ZM5.01207 7.43702C4.94142 7.57062 4.88541 7.7148 4.84669 7.86796L8.51855 8.7961C8.55727 8.64294 8.5765 8.48946 8.57781 8.33834C8.58529 7.47907 8.0136 6.69581 7.15131 6.47785C6.28901 6.25989 5.4138 6.6774 5.01207 7.43702Z" fill="#BC2121"/>
<path d="M6.44347 7.39321C6.35488 7.59971 6.11566 7.6953 5.90916 7.6067C5.70266 7.51811 5.60707 7.27889 5.69567 7.07239C5.78426 6.86589 6.02348 6.77031 6.22998 6.8589C6.43648 6.94749 6.53207 7.18671 6.44347 7.39321Z" fill="#FE9595"/>
<path d="M15.3987 8.49939C15.3987 8.72409 15.2165 8.90625 14.9918 8.90625C14.7671 8.90625 14.585 8.72409 14.585 8.49939C14.585 8.27469 14.7671 8.09253 14.9918 8.09253C15.2165 8.09253 15.3987 8.27469 15.3987 8.49939Z" fill="#FE9595"/>
<path d="M3.21858 13.7168C4.33184 13.9969 7.22618 12.8953 8.5342 12.3095C10.5722 10.945 11.4912 9.2738 11.6959 8.60876C10.3664 6.43724 8.13747 7.54868 7.18919 8.37583C5.20174 7.99985 4.63553 9.27679 4.60086 9.96227C2.89115 10.0266 2.57849 11.1652 2.63587 11.7265C2.14841 12.268 1.827 13.3667 3.21858 13.7168Z" fill="#A8E12D"/>
<path fill-rule="evenodd" clip-rule="evenodd" d="M2.30848 13.4948C2.50383 13.6936 2.78648 13.8443 3.16268 13.939C3.48814 14.0208 3.91615 13.9978 4.37173 13.9236C4.83399 13.8483 5.3518 13.7154 5.87035 13.5569C6.90773 13.2399 7.96738 12.8144 8.62788 12.5186C8.63967 12.5133 8.65098 12.507 8.66171 12.4999C10.7408 11.1079 11.6938 9.39446 11.915 8.6761C11.9343 8.61325 11.9257 8.54511 11.8914 8.48902C11.5389 7.91322 11.1177 7.54144 10.6597 7.33153C10.2026 7.12202 9.72491 7.08114 9.26998 7.14047C8.41783 7.25162 7.62524 7.71627 7.12305 8.13135C6.13392 7.9688 5.45137 8.19945 5.00873 8.60124C4.63411 8.94128 4.45499 9.38278 4.39455 9.74557C3.59905 9.81619 3.08435 10.1228 2.77543 10.5165C2.48026 10.8927 2.39117 11.3255 2.40125 11.6485C2.15933 11.9477 1.95764 12.3798 1.99425 12.8127C2.01477 13.0552 2.11055 13.2934 2.30848 13.4948ZM2.45095 12.774C2.42544 12.4725 2.58785 12.1223 2.80621 11.8797C2.84951 11.8316 2.87045 11.7675 2.86387 11.7031C2.84016 11.4712 2.89386 11.108 3.13601 10.7994C3.37163 10.4991 3.80875 10.2213 4.60949 10.1912C4.72816 10.1867 4.82375 10.0924 4.82975 9.97376C4.84476 9.67712 4.97701 9.24902 5.31678 8.94061C5.64672 8.64112 6.20725 8.42322 7.14661 8.60093C7.21566 8.61399 7.28689 8.59465 7.33985 8.54846C7.79327 8.15295 8.54696 7.69699 9.32926 7.59496C9.71628 7.54448 10.1044 7.5812 10.4688 7.74819C10.8105 7.9048 11.1456 8.18252 11.444 8.63895C11.1994 9.31091 10.3104 10.8392 8.4228 12.1082C7.77411 12.3979 6.74229 12.8112 5.7364 13.1186C5.22871 13.2738 4.73244 13.4004 4.29803 13.4712C3.85694 13.5431 3.50569 13.5526 3.27451 13.4945C2.95492 13.4141 2.75591 13.2962 2.63537 13.1736C2.51742 13.0535 2.4631 12.9176 2.45095 12.774Z" fill="#5E9D0D"/>
<path d="M11 8.47925C6.59769 8.47925 2.97418 11.8139 2.51756 16.095C2.46387 16.5984 2.87945 17.0102 3.38571 17.0102H18.6143C19.1206 17.0102 19.5362 16.5984 19.4825 16.095C19.0259 11.8138 15.4024 8.47925 11 8.47925Z" fill="#F7A913"/>
<path fill-rule="evenodd" clip-rule="evenodd" d="M2.06179 16.0464C2.54299 11.5347 6.36085 8.02087 11 8.02087C15.6392 8.02087 19.457 11.5347 19.9382 16.0464C20.0243 16.8533 19.359 17.4685 18.6143 17.4685H3.38568C2.64099 17.4685 1.97572 16.8533 2.06179 16.0464ZM2.51753 16.095C2.97416 11.8138 6.59766 8.47921 11 8.47921C15.4023 8.47921 19.0259 11.8138 19.4825 16.095C19.5362 16.5984 19.1206 17.0102 18.6143 17.0102H3.38568C2.87942 17.0102 2.46384 16.5984 2.51753 16.095Z" fill="#AE6C08"/>
<path fill-rule="evenodd" clip-rule="evenodd" d="M17.1551 17.0102C17.3413 16.8422 17.4507 16.5965 17.4242 16.3239C17.0727 12.7136 14.6641 9.70584 11.3855 8.48779C15.6123 8.67577 19.0392 11.9395 19.4825 16.095C19.5362 16.5984 19.1206 17.0102 18.6143 17.0102H17.1551Z" fill="#ED9E05"/>
<path d="M6.2534 14.9026C5.93223 15.771 5.06441 16.2503 4.31507 15.9732C3.56574 15.696 3.21864 14.7674 3.53981 13.899C3.86097 13.0306 5.1374 11.1526 5.88674 11.4297C6.63607 11.7068 6.57457 14.0342 6.2534 14.9026Z" fill="#FFBB38"/>
<path d="M16.8368 15.5691C16.8368 15.7747 16.6848 15.9414 16.4972 15.9414C16.3096 15.9414 16.1576 15.7747 16.1576 15.5691C16.1576 15.3634 16.3096 15.1967 16.4972 15.1967C16.6848 15.1967 16.8368 15.3634 16.8368 15.5691Z" fill="#CB8807"/>
<path d="M17.2926 14.1826C17.2926 14.3882 17.1406 14.555 16.953 14.555C16.7655 14.555 16.6134 14.3882 16.6134 14.1826C16.6134 13.9769 16.7655 13.8102 16.953 13.8102C17.1406 13.8102 17.2926 13.9769 17.2926 14.1826Z" fill="#CB8807"/>
<path d="M14.6396 15.9415C14.6396 16.1472 14.4875 16.3139 14.2999 16.3139C14.1124 16.3139 13.9603 16.1472 13.9603 15.9415C13.9603 15.7358 14.1124 15.5691 14.2999 15.5691C14.4875 15.5691 14.6396 15.7358 14.6396 15.9415Z" fill="#CB8807"/>
<path d="M17.7758 15.9415C17.7758 16.1056 17.6545 16.2387 17.5048 16.2387C17.3551 16.2387 17.2338 16.1056 17.2338 15.9415C17.2338 15.7773 17.3551 15.6443 17.5048 15.6443C17.6545 15.6443 17.7758 15.7773 17.7758 15.9415Z" fill="#CB8807"/>
<path d="M15.6444 15.1444C15.6444 15.3085 15.5231 15.4416 15.3734 15.4416C15.2237 15.4416 15.1024 15.3085 15.1024 15.1444C15.1024 14.9802 15.2237 14.8472 15.3734 14.8472C15.5231 14.8472 15.6444 14.9802 15.6444 15.1444Z" fill="#CB8807"/>
<path d="M18.318 13.8101C18.318 13.9743 18.1966 14.1073 18.0469 14.1073C17.8972 14.1073 17.7759 13.9743 17.7759 13.8101C17.7759 13.646 17.8972 13.5129 18.0469 13.5129C18.1966 13.5129 18.318 13.646 18.318 13.8101Z" fill="#CB8807"/>
<path d="M18.7437 15.7553C18.7437 15.9195 18.6224 16.0525 18.4727 16.0525C18.323 16.0525 18.2017 15.9195 18.2017 15.7553C18.2017 15.5912 18.323 15.4581 18.4727 15.4581C18.6224 15.4581 18.7437 15.5912 18.7437 15.7553Z" fill="#CB8807"/>
<path d="M16.0248 16.3024C16.0248 16.4404 15.9227 16.5523 15.7969 16.5523C15.671 16.5523 15.569 16.4404 15.569 16.3024C15.569 16.1644 15.671 16.0525 15.7969 16.0525C15.9227 16.0525 16.0248 16.1644 16.0248 16.3024Z" fill="#CB8807"/>
<path d="M13.392 16.1384C13.392 16.2765 13.29 16.3883 13.1641 16.3883C13.0383 16.3883 12.9362 16.2765 12.9362 16.1384C12.9362 16.0004 13.0383 15.8885 13.1641 15.8885C13.29 15.8885 13.392 16.0004 13.392 16.1384Z" fill="#CB8807"/>
<path d="M14.5891 15.0356C14.5891 15.1397 14.5122 15.224 14.4173 15.224C14.3224 15.224 14.2454 15.1397 14.2454 15.0356C14.2454 14.9315 14.3224 14.8472 14.4173 14.8472C14.5122 14.8472 14.5891 14.9315 14.5891 15.0356Z" fill="#CB8807"/>
<path d="M16.4231 14.7434C16.4231 14.8474 16.3462 14.9318 16.2512 14.9318C16.1563 14.9318 16.0794 14.8474 16.0794 14.7434C16.0794 14.6393 16.1563 14.5549 16.2512 14.5549C16.3462 14.5549 16.4231 14.6393 16.4231 14.7434Z" fill="#CB8807"/>
<path d="M16.3684 13.9986C16.3684 14.1027 16.2915 14.187 16.1966 14.187C16.1017 14.187 16.0247 14.1027 16.0247 13.9986C16.0247 13.8945 16.1017 13.8102 16.1966 13.8102C16.2915 13.8102 16.3684 13.8945 16.3684 13.9986Z" fill="#CB8807"/>
<path d="M15.717 14.3803C15.717 14.4844 15.6401 14.5687 15.5452 14.5687C15.4503 14.5687 15.3734 14.4844 15.3734 14.3803C15.3734 14.2763 15.4503 14.1919 15.5452 14.1919C15.6401 14.1919 15.717 14.2763 15.717 14.3803Z" fill="#CB8807"/>
<path d="M17.6363 13.0411C17.6363 13.1451 17.5594 13.2295 17.4645 13.2295C17.3696 13.2295 17.2927 13.1451 17.2927 13.0411C17.2927 12.937 17.3696 12.8527 17.4645 12.8527C17.5594 12.8527 17.6363 12.937 17.6363 13.0411Z" fill="#CB8807"/>
<path d="M15.1722 15.9415C15.1722 16.0455 15.0952 16.1299 15.0003 16.1299C14.9054 16.1299 14.8285 16.0455 14.8285 15.9415C14.8285 15.8374 14.9054 15.7531 15.0003 15.7531C15.0952 15.7531 15.1722 15.8374 15.1722 15.9415Z" fill="#CB8807"/>
<path d="M12.4638 16.4971C12.4638 16.5751 12.4062 16.6383 12.3351 16.6383C12.264 16.6383 12.2064 16.5751 12.2064 16.4971C12.2064 16.4192 12.264 16.356 12.3351 16.356C12.4062 16.356 12.4638 16.4192 12.4638 16.4971Z" fill="#CB8807"/>
<path d="M13.9204 16.5523C13.9204 16.6302 13.8628 16.6934 13.7917 16.6934C13.7206 16.6934 13.663 16.6302 13.663 16.5523C13.663 16.4743 13.7206 16.4111 13.7917 16.4111C13.8628 16.4111 13.9204 16.4743 13.9204 16.5523Z" fill="#CB8807"/>
<path d="M18.3179 16.455C18.3179 16.533 18.2603 16.5962 18.1892 16.5962C18.1181 16.5962 18.0605 16.533 18.0605 16.455C18.0605 16.377 18.1181 16.3138 18.1892 16.3138C18.2603 16.3138 18.3179 16.377 18.3179 16.455Z" fill="#CB8807"/>
<path d="M19.0726 16.1612C19.0726 16.2391 19.015 16.3023 18.9439 16.3023C18.8728 16.3023 18.8152 16.2391 18.8152 16.1612C18.8152 16.0832 18.8728 16.02 18.9439 16.02C19.015 16.02 19.0726 16.0832 19.0726 16.1612Z" fill="#CB8807"/>
<path d="M18.8152 15.0356C18.8152 15.1135 18.7576 15.1767 18.6865 15.1767C18.6154 15.1767 18.5577 15.1135 18.5577 15.0356C18.5577 14.9576 18.6154 14.8944 18.6865 14.8944C18.7576 14.8944 18.8152 14.9576 18.8152 15.0356Z" fill="#CB8807"/>
<path d="M16.953 16.3883C16.953 16.5263 16.851 16.6382 16.7252 16.6382C16.5993 16.6382 16.4973 16.5263 16.4973 16.3883C16.4973 16.2503 16.5993 16.1384 16.7252 16.1384C16.851 16.1384 16.953 16.2503 16.953 16.3883Z" fill="#CB8807"/>
<path d="M18.2016 14.8471C18.2016 15.105 18.011 15.314 17.7758 15.314C17.5407 15.314 17.35 15.105 17.35 14.8471C17.35 14.5893 17.5407 14.3802 17.7758 14.3802C18.011 14.3802 18.2016 14.5893 18.2016 14.8471Z" fill="#CB8807"/>
<path fill-rule="evenodd" clip-rule="evenodd" d="M9.07149 15.738C8.89839 15.571 8.79377 15.4822 8.59651 15.4969C8.40382 15.5112 8.29383 15.5998 8.13608 15.7405C8.13001 15.746 8.12386 15.7515 8.11763 15.757C7.96352 15.8949 7.7597 16.0773 7.42311 16.1254C6.98755 16.1877 6.69004 15.9854 6.46196 15.8303C6.45919 15.8285 6.45644 15.8266 6.45369 15.8247C6.21581 15.663 6.0489 15.5547 5.7969 15.5821C5.55531 15.6083 5.29081 15.726 5.0749 15.849C4.96953 15.909 4.88086 15.9673 4.81878 16.0105C4.78782 16.032 4.76368 16.0496 4.74761 16.0616C4.73958 16.0675 4.73359 16.0721 4.72978 16.075L4.72573 16.0781L4.7251 16.0786C4.62565 16.1568 4.48155 16.1397 4.40328 16.0403C4.32501 15.9408 4.34217 15.7967 4.44163 15.7185L4.58331 15.8985C4.44163 15.7185 4.44159 15.7185 4.44163 15.7185L4.44202 15.7182L4.44264 15.7177L4.44454 15.7162L4.45098 15.7112C4.45641 15.7071 4.46413 15.7012 4.47396 15.6939C4.49362 15.6793 4.52179 15.6587 4.55722 15.6341C4.62791 15.585 4.72828 15.519 4.84801 15.4508C5.0823 15.3173 5.4122 15.1628 5.74744 15.1264C6.17449 15.0801 6.468 15.28 6.69194 15.4325C6.69846 15.4369 6.70493 15.4413 6.71134 15.4457C6.94642 15.6054 7.11048 15.7071 7.3582 15.6717C7.55513 15.6435 7.66748 15.5443 7.831 15.3985C7.99307 15.2539 8.20392 15.0666 8.56241 15.0398C8.97608 15.0089 9.21365 15.2382 9.3834 15.4021L9.38973 15.4082C9.56602 15.5783 9.67397 15.6755 9.87599 15.6695C10.084 15.6633 10.1937 15.5728 10.3593 15.4349C10.5287 15.2939 10.7514 15.1099 11.138 15.1253C11.5327 15.141 11.7449 15.3822 11.8914 15.5487C11.8976 15.5558 11.9037 15.5627 11.9096 15.5694C12.0628 15.7428 12.1497 15.8245 12.332 15.8131C12.5191 15.8013 12.6434 15.6929 12.8353 15.5162L12.8431 15.5091C13.0182 15.3477 13.2598 15.1251 13.6354 15.1251C13.8525 15.1251 14.0205 15.1838 14.1576 15.2779C14.279 15.3612 14.3692 15.4687 14.4376 15.5502C14.4416 15.555 14.4455 15.5597 14.4494 15.5643C14.5258 15.6551 14.5793 15.7147 14.6447 15.7556C14.7018 15.7914 14.78 15.8198 14.9126 15.8129C15.1399 15.8011 15.3337 15.6976 15.5797 15.5613L15.5943 15.5532C15.8237 15.426 16.1034 15.271 16.4459 15.2543C16.7912 15.2374 17.0968 15.3627 17.3061 15.4808C17.4125 15.5409 17.4988 15.6018 17.559 15.648C17.5892 15.6712 17.6131 15.6909 17.6299 15.7053C17.6383 15.7125 17.645 15.7184 17.6499 15.7227L17.6558 15.728L17.6576 15.7298L17.6583 15.7304L17.6586 15.7306C17.6587 15.7307 17.6588 15.7308 17.5026 15.8985L17.6588 15.7308C17.7514 15.8171 17.7566 15.9621 17.6703 16.0547C17.5842 16.1472 17.4396 16.1525 17.3469 16.0667C17.3469 16.0667 17.3469 16.0667 17.3469 16.0667C17.3468 16.0666 17.3467 16.0665 17.3467 16.0664C17.3466 16.0664 17.3467 16.0665 17.3467 16.0664L17.3464 16.0662M17.3464 16.0662L17.3444 16.0644C17.342 16.0623 17.3379 16.0587 17.3322 16.0538C17.3208 16.0441 17.3031 16.0294 17.2798 16.0115C17.2329 15.9755 17.1647 15.9273 17.0809 15.88C16.9098 15.7835 16.6927 15.7011 16.4682 15.7121C16.2412 15.7232 16.0475 15.8261 15.8018 15.9622L15.7853 15.9714C15.5565 16.0982 15.2776 16.2529 14.9364 16.2706C14.7172 16.282 14.5444 16.2337 14.4013 16.144C14.2676 16.0602 14.1722 15.9467 14.1004 15.8614L14.0986 15.8593C14.0199 15.7657 13.966 15.7023 13.8983 15.6558C13.8392 15.6153 13.7621 15.5834 13.6354 15.5834C13.4545 15.5834 13.3337 15.6803 13.1457 15.8534C13.1385 15.8601 13.1311 15.8669 13.1236 15.8739C12.9534 16.0312 12.7189 16.248 12.3607 16.2705C11.9408 16.2968 11.721 16.0481 11.5674 15.8743L11.5662 15.873C11.4064 15.6922 11.3125 15.5909 11.1198 15.5832C10.9174 15.5752 10.8117 15.6546 10.6526 15.7871C10.6472 15.7917 10.6416 15.7963 10.636 15.801C10.4748 15.9356 10.2581 16.1166 9.88969 16.1276C9.48672 16.1397 9.25287 15.9135 9.0868 15.7528C9.08164 15.7478 9.07653 15.7429 9.07149 15.738" fill="#FFC961"/>
<path fill-rule="evenodd" clip-rule="evenodd" d="M12.4159 13.8021C12.589 13.6351 12.6937 13.5462 12.8909 13.561C13.0836 13.5753 13.1936 13.6639 13.3513 13.8046C13.3574 13.81 13.3636 13.8155 13.3698 13.8211C13.5239 13.959 13.7277 14.1413 14.0643 14.1895C14.4999 14.2518 14.7974 14.0495 15.0255 13.8944C15.0282 13.8925 15.031 13.8907 15.0337 13.8888C15.2716 13.7271 15.4385 13.6188 15.6905 13.6462C15.9321 13.6724 16.1966 13.7901 16.4125 13.9131C16.5179 13.9731 16.6066 14.0314 16.6686 14.0746C16.6996 14.0961 16.7237 14.1137 16.7398 14.1257C16.7478 14.1316 16.7538 14.1362 16.7576 14.1391L16.7617 14.1422L16.7623 14.1427C16.8618 14.2209 17.0059 14.2038 17.0841 14.1044C17.1624 14.0049 17.1453 13.8608 17.0458 13.7826L16.9041 13.9626C17.0458 13.7826 17.0458 13.7826 17.0458 13.7826L17.0454 13.7822L17.0448 13.7818L17.0429 13.7803L17.0365 13.7753C17.031 13.7711 17.0233 13.7653 17.0135 13.758C16.9938 13.7433 16.9656 13.7228 16.9302 13.6982C16.8595 13.6491 16.7591 13.5831 16.6394 13.5149C16.4051 13.3814 16.0752 13.2269 15.74 13.1905C15.3129 13.1442 15.0194 13.344 14.7955 13.4965C14.789 13.501 14.7825 13.5054 14.7761 13.5097C14.541 13.6695 14.377 13.7712 14.1292 13.7358C13.9323 13.7076 13.8199 13.6084 13.6564 13.4626C13.4944 13.318 13.2835 13.1306 12.925 13.1039C12.5113 13.073 12.2738 13.3023 12.104 13.4662L12.0977 13.4723C11.9214 13.6424 11.8135 13.7396 11.6114 13.7336C11.4034 13.7273 11.2937 13.6369 11.1281 13.499C10.9588 13.358 10.736 13.174 10.3494 13.1894C9.95471 13.205 9.74252 13.4463 9.59602 13.6128C9.58983 13.6199 9.58376 13.6268 9.57779 13.6335C9.42458 13.8069 9.33774 13.8886 9.15539 13.8771C8.96829 13.8654 8.84405 13.757 8.65216 13.5803L8.64436 13.5731C8.46918 13.4118 8.22761 13.1892 7.85198 13.1892C7.63489 13.1892 7.46695 13.2479 7.3298 13.342C7.20839 13.4253 7.11818 13.5328 7.04983 13.6143C7.04583 13.6191 7.0419 13.6238 7.03804 13.6284C6.96163 13.7192 6.90811 13.7787 6.84274 13.8197C6.78558 13.8555 6.70738 13.8839 6.57484 13.877C6.34752 13.8652 6.15373 13.7617 5.90773 13.6254L5.89314 13.6173C5.66369 13.4901 5.38403 13.3351 5.04154 13.3184C4.91512 13.3122 4.80764 13.4097 4.80147 13.5361C4.7953 13.6625 4.89277 13.77 5.01919 13.7762C5.24623 13.7872 5.43989 13.8902 5.68562 14.0263L5.70208 14.0354C5.93092 14.1623 6.20981 14.3169 6.55099 14.3347C6.77019 14.3461 6.94304 14.2977 7.08611 14.2081C7.21986 14.1243 7.31526 14.0108 7.38704 13.9255L7.38882 13.9233C7.46755 13.8297 7.52138 13.7664 7.5891 13.7199C7.64818 13.6794 7.72532 13.6475 7.85198 13.6475C8.03288 13.6475 8.15374 13.7444 8.34169 13.9175C8.34895 13.9242 8.35633 13.931 8.36383 13.9379C8.53399 14.0953 8.76856 14.3121 9.12669 14.3346C9.5466 14.3609 9.76642 14.1122 9.92004 13.9384L9.92121 13.9371C10.081 13.7563 10.1749 13.655 10.3676 13.6473C10.57 13.6393 10.6757 13.7187 10.8348 13.8512C10.8403 13.8558 10.8458 13.8604 10.8514 13.865C11.0126 13.9997 11.2293 14.1807 11.5977 14.1917C12.0007 14.2037 12.2346 13.9776 12.4006 13.8169C12.4058 13.8119 12.4109 13.807 12.4159 13.8021Z" fill="#FFC961"/>
<path fill-rule="evenodd" clip-rule="evenodd" d="M13.3291 11.8989C13.5022 12.0659 13.6068 12.1548 13.8041 12.1401C13.9968 12.1257 14.1068 12.0371 14.2645 11.8964C14.2706 11.891 14.2767 11.8855 14.283 11.8799C14.4371 11.7421 14.6409 11.5597 14.9775 11.5116C15.413 11.4493 15.7105 11.6515 15.9386 11.8066C15.9414 11.8085 15.9441 11.8104 15.9469 11.8122C16.1848 11.9739 16.3517 12.0822 16.6037 12.0549C16.7295 12.0412 16.8426 12.1321 16.8562 12.258C16.8699 12.3838 16.779 12.4969 16.6531 12.5105C16.2261 12.5569 15.9326 12.357 15.7086 12.2045C15.7021 12.2001 15.6957 12.1957 15.6892 12.1913C15.4542 12.0315 15.2901 11.9298 15.0424 11.9653C14.8455 11.9934 14.7331 12.0926 14.5696 12.2385C14.4075 12.383 14.1967 12.5704 13.8382 12.5972C13.4245 12.628 13.1869 12.3987 13.0172 12.2349L13.0109 12.2288C12.8346 12.0587 12.7266 11.9614 12.5246 11.9675C12.3166 11.9737 12.2069 12.0641 12.0413 12.202C11.8719 12.3431 11.6492 12.527 11.2626 12.5117C10.8679 12.496 10.6557 12.2548 10.5092 12.0882C10.503 12.0812 10.4969 12.0743 10.4909 12.0675C10.3377 11.8942 10.2509 11.8125 10.0685 11.8239C9.88145 11.8356 9.75721 11.944 9.56532 12.1207L9.55752 12.1279C9.38234 12.2893 9.14077 12.5119 8.76514 12.5119C8.54804 12.5119 8.38011 12.4532 8.24296 12.3591C8.12155 12.2758 8.03134 12.1682 7.96299 12.0867C7.95899 12.082 7.95506 12.0773 7.9512 12.0727C7.87479 11.9818 7.82127 11.9223 7.7559 11.8813C7.69874 11.8455 7.62054 11.8171 7.488 11.824C7.26068 11.8359 7.06689 11.9394 6.82089 12.0757L6.8063 12.0837C6.57685 12.2109 6.29719 12.366 5.9547 12.3827C5.82828 12.3889 5.7208 12.2914 5.71463 12.165C5.70846 12.0385 5.80593 11.9311 5.93235 11.9249C6.15938 11.9138 6.35304 11.8109 6.59878 11.6747C6.60424 11.6717 6.60973 11.6687 6.61524 11.6656C6.84408 11.5387 7.12297 11.3841 7.46415 11.3663C7.68335 11.3549 7.8562 11.4033 7.99927 11.493C8.13302 11.5768 8.22842 11.6902 8.3002 11.7756L8.30198 11.7777C8.38071 11.8713 8.43454 11.9347 8.50225 11.9811C8.56134 12.0217 8.63848 12.0535 8.76514 12.0535C8.94603 12.0535 9.0669 11.9566 9.25485 11.7836C9.2621 11.7769 9.26948 11.7701 9.27699 11.7631C9.44715 11.6058 9.68172 11.3889 10.0399 11.3665C10.4598 11.3401 10.6796 11.5888 10.8332 11.7627L10.8344 11.764C10.9941 11.9448 11.0881 12.0461 11.2807 12.0537C11.4832 12.0618 11.5888 11.9824 11.748 11.8499C11.7534 11.8453 11.759 11.8407 11.7646 11.836C11.9257 11.7014 12.1425 11.5204 12.5109 11.5094C12.9139 11.4973 13.1477 11.7235 13.3138 11.8841C13.3189 11.8891 13.3241 11.8941 13.3291 11.8989Z" fill="#FFC961"/>
<path fill-rule="evenodd" clip-rule="evenodd" d="M14.3384 9.98754C14.5115 10.1546 14.6161 10.2434 14.8133 10.2287C14.9396 10.2193 15.0495 10.314 15.0589 10.4402C15.0683 10.5664 14.9737 10.6764 14.8474 10.6858C14.4338 10.7166 14.1962 10.4873 14.0265 10.3235C14.0243 10.3214 14.0222 10.3194 14.0201 10.3174C13.8438 10.1473 13.7359 10.0501 13.5339 10.0561C13.3258 10.0623 13.2161 10.1528 13.0506 10.2907C12.8812 10.4317 12.6585 10.6157 12.2718 10.6003C11.8771 10.5846 11.6649 10.3434 11.5184 10.1768C11.5123 10.1698 11.5062 10.1629 11.5002 10.1561C11.347 9.9828 11.2602 9.90109 11.0778 9.91253C10.8907 9.92427 10.7665 10.0326 10.5746 10.2093L10.5668 10.2165C10.3916 10.3779 10.15 10.6005 9.7744 10.6005C9.55731 10.6005 9.38938 10.5418 9.25223 10.4477C9.13081 10.3644 9.0406 10.2568 8.97225 10.1754C8.96825 10.1706 8.96432 10.1659 8.96047 10.1613C8.88405 10.0705 8.83053 10.0109 8.76516 9.96996C8.70801 9.93415 8.6298 9.90576 8.49726 9.91267C8.26994 9.92451 8.07615 10.028 7.83015 10.1643C7.82531 10.167 7.82045 10.1697 7.81556 10.1724C7.58612 10.2996 7.30645 10.4546 6.96396 10.4713C6.83755 10.4775 6.73007 10.38 6.7239 10.2536C6.71772 10.1272 6.8152 10.0197 6.94161 10.0135C7.16865 10.0024 7.36231 9.89949 7.60805 9.76335C7.61351 9.76033 7.61899 9.75729 7.62451 9.75423C7.85335 9.62735 8.13224 9.47273 8.47342 9.45496C8.69261 9.44354 8.86547 9.49193 9.00854 9.58159C9.14229 9.6654 9.23769 9.77885 9.30946 9.8642L9.31125 9.86632C9.38997 9.95993 9.44381 10.0233 9.51152 10.0698C9.5706 10.1103 9.64775 10.1421 9.7744 10.1421C9.9553 10.1421 10.0762 10.0453 10.2641 9.87218C10.2714 9.8655 10.2788 9.85867 10.2863 9.85174C10.4564 9.69442 10.691 9.47756 11.0491 9.45509C11.469 9.42875 11.6888 9.67747 11.8425 9.85129L11.8436 9.85261C12.0034 10.0334 12.0974 10.1347 12.29 10.1423C12.4924 10.1504 12.5981 10.071 12.7572 9.93848C12.7627 9.93392 12.7682 9.9293 12.7738 9.92462C12.935 9.79001 13.1517 9.60899 13.5202 9.59798C13.9231 9.58592 14.157 9.81211 14.323 9.97274C14.3282 9.97774 14.3333 9.98267 14.3384 9.98754Z" fill="#FFC961"/>
<path fill-rule="evenodd" clip-rule="evenodd" d="M7.70741 10.0328C7.76702 10.1444 7.72482 10.2833 7.61317 10.3429C5.76745 11.3282 4.59325 13.0967 4.16957 14.3125C4.12792 14.432 3.99727 14.4951 3.87775 14.4535C3.75824 14.4118 3.69511 14.2812 3.73676 14.1617C4.19155 12.8566 5.43315 10.9871 7.39733 9.93855C7.50898 9.87894 7.64781 9.92114 7.70741 10.0328Z" fill="#FFEECE"/>
</svg>
