<?xml version="1.0" standalone="no"?>
<!DOCTYPE svg PUBLIC "-//W3C//DTD SVG 20010904//EN"
 "http://www.w3.org/TR/2001/REC-SVG-20010904/DTD/svg10.dtd">
<svg version="1.0" xmlns="http://www.w3.org/2000/svg"
 width="512.000000pt" height="512.000000pt" viewBox="0 0 512.000000 512.000000"
 preserveAspectRatio="xMidYMid meet">

<g transform="translate(0.000000,512.000000) scale(0.100000,-0.100000)"
fill="#444" stroke="none">
<path d="M2153 4170 c-53 -32 -69 -87 -44 -147 22 -53 54 -63 200 -63 l131 0
0 -120 0 -119 -32 -5 c-18 -3 -60 -8 -93 -11 -264 -27 -579 -132 -817 -274
-553 -330 -922 -885 -1013 -1523 -8 -57 -15 -142 -15 -190 l0 -88 2090 0 2090
0 0 78 c0 236 -80 564 -197 813 -228 482 -638 863 -1139 1059 -133 52 -341
105 -469 120 -55 6 -115 13 -132 16 l-33 5 0 119 0 120 130 0 c148 0 179 9
200 60 26 63 11 118 -43 150 -30 19 -53 20 -407 20 -354 0 -377 -1 -407 -20z
m125 -1166 c13 -9 31 -32 39 -52 13 -32 14 -42 2 -76 -21 -60 -53 -77 -159
-87 -175 -16 -355 -103 -442 -213 -23 -28 -58 -88 -79 -133 -39 -84 -64 -110
-109 -114 -50 -4 -69 2 -99 32 -44 43 -43 97 4 191 85 169 195 284 356 372
163 89 411 130 487 80z"/>
<path d="M185 1391 c-49 -12 -89 -37 -128 -80 -93 -103 -65 -270 57 -346 l49
-30 2397 0 2397 0 49 30 c88 55 131 164 105 263 -14 51 -69 115 -125 145 l-41
22 -2365 2 c-1301 0 -2378 -2 -2395 -6z"/>
</g>
</svg>
