<svg width="23" height="23" viewBox="0 0 23 23" fill="none" xmlns="http://www.w3.org/2000/svg">
<g clip-path="url(#clip0_114_411)">
<path d="M8.56203 4.2631C10.8553 4.21956 12.7873 8.02769 12.8526 11.4664C12.9179 14.9051 11.1017 17.2001 8.80848 17.2436C6.51523 17.2872 4.61329 15.0627 4.548 11.624C4.48271 8.18535 6.41347 4.30389 8.56203 4.2631Z" fill="#EDE6CF"/>
<path fill-rule="evenodd" clip-rule="evenodd" d="M11.9477 6.33014C12.7646 7.77579 13.2835 9.66341 13.3175 11.4576C13.3852 15.0236 11.48 17.658 8.81734 17.7085C6.15472 17.7591 4.15082 15.199 4.08312 11.6329C4.04893 9.83232 4.53505 7.9247 5.31379 6.45201C5.70359 5.71484 6.17641 5.06818 6.71245 4.59749C7.24796 4.12726 7.87282 3.81112 8.55324 3.7982C9.96868 3.77132 11.1487 4.91631 11.9477 6.33014ZM12.8526 11.4664C12.7873 8.0277 10.8553 4.21957 8.56207 4.26311C6.4135 4.30391 4.48275 8.18537 4.54803 11.6241C4.61332 15.0628 6.51527 17.2872 8.80851 17.2436C11.1018 17.2001 12.9179 14.9051 12.8526 11.4664Z" fill="#968960"/>
<path fill-rule="evenodd" clip-rule="evenodd" d="M9.96867 4.722C10.8469 6.07947 11.4225 7.99557 11.4569 9.80537C11.5197 13.1134 9.7599 15.3214 7.53816 15.3636C6.61259 15.3811 5.75286 15.02 5.06021 14.3536C5.78518 16.1897 7.20071 17.2741 8.8086 17.2436C11.1018 17.2 12.918 14.905 12.8527 11.4664C12.8014 8.76278 11.5961 5.83085 9.96867 4.722Z" fill="#DBD2B2"/>
<path d="M7.67285 6.391C8.61635 6.58401 7.50195 7.87392 7.93396 9.24199C8.63146 11.4507 7.41176 12.4725 6.46826 12.2795C5.52475 12.0865 5.02954 10.6118 5.36218 8.98576C5.69482 7.3597 6.72934 6.19799 7.67285 6.391Z" fill="#FEF8E3"/>
<path fill-rule="evenodd" clip-rule="evenodd" d="M6.51218 9.20548C6.48081 9.56515 6.48074 9.89038 6.48074 9.99761C6.48074 10.1902 6.3246 10.3464 6.13199 10.3464C5.93938 10.3464 5.78324 10.1902 5.78324 9.9976L5.78324 9.99692C5.78324 9.88542 5.78324 9.53558 5.81732 9.14488C5.85007 8.76938 5.91843 8.2951 6.08264 7.96936C6.16934 7.79737 6.37906 7.72823 6.55105 7.81494C6.72304 7.90164 6.79218 8.11135 6.70547 8.28334C6.60762 8.47745 6.54495 8.82981 6.51218 9.20548Z" fill="white"/>
<path d="M11.7682 9.37383C11.9526 9.52095 11.9989 9.76956 11.8716 9.92912C11.7442 10.0887 11.4916 10.0988 11.3072 9.95163C11.1228 9.80451 11.0765 9.55589 11.2039 9.39634C11.3312 9.23678 11.5839 9.2267 11.7682 9.37383Z" fill="#CFC59E"/>
<path d="M11.5645 8.41848C11.6694 8.50221 11.6957 8.64369 11.6233 8.73449C11.5508 8.82529 11.407 8.83102 11.3021 8.7473C11.1972 8.66358 11.1709 8.5221 11.2433 8.4313C11.3158 8.3405 11.4596 8.33476 11.5645 8.41848Z" fill="#CFC59E"/>
<path d="M10.8323 8.87405C10.9372 8.95778 10.9636 9.09926 10.8911 9.19006C10.8186 9.28085 10.6748 9.28659 10.5699 9.20287C10.465 9.11914 10.4387 8.97766 10.5111 8.88686C10.5836 8.79606 10.7274 8.79033 10.8323 8.87405Z" fill="#CFC59E"/>
<path d="M10.4532 7.14875C10.5052 7.19021 10.5182 7.26027 10.4823 7.30524C10.4464 7.3502 10.3752 7.35304 10.3233 7.31158C10.2713 7.27012 10.2583 7.20006 10.2942 7.1551C10.33 7.11013 10.4012 7.10729 10.4532 7.14875Z" fill="#CFC59E"/>
<path d="M10.6147 6.02534C10.6667 6.0668 10.6797 6.13686 10.6438 6.18183C10.6079 6.22679 10.5367 6.22963 10.4848 6.18817C10.4328 6.14671 10.4198 6.07665 10.4557 6.03168C10.4915 5.98672 10.5627 5.98388 10.6147 6.02534Z" fill="#CFC59E"/>
<path d="M12.04 8.98255C12.092 9.02401 12.105 9.09408 12.0691 9.13904C12.0332 9.184 11.962 9.18685 11.9101 9.14538C11.8581 9.10392 11.8451 9.03386 11.8809 8.9889C11.9168 8.94393 11.988 8.94109 12.04 8.98255Z" fill="#CFC59E"/>
<path d="M12.1927 9.92188C12.2447 9.96334 12.2577 10.0334 12.2218 10.0784C12.1859 10.1233 12.1147 10.1262 12.0628 10.0847C12.0108 10.0433 11.9978 9.97319 12.0337 9.92823C12.0695 9.88326 12.1407 9.88042 12.1927 9.92188Z" fill="#CFC59E"/>
<path d="M10.7603 9.90098C10.8388 9.96362 10.8585 10.0695 10.8043 10.1374C10.7501 10.2053 10.6425 10.2096 10.564 10.147C10.4855 10.0843 10.4658 9.9785 10.52 9.91057C10.5742 9.84264 10.6818 9.83835 10.7603 9.90098Z" fill="#CFC59E"/>
<path d="M12.4069 11.3602C12.4854 11.4228 12.505 11.5286 12.4508 11.5966C12.3966 11.6645 12.2891 11.6688 12.2106 11.6062C12.1321 11.5435 12.1124 11.4377 12.1666 11.3697C12.2208 11.3018 12.3284 11.2975 12.4069 11.3602Z" fill="#CFC59E"/>
<path d="M11.6205 11.147C11.699 11.2096 11.7187 11.3154 11.6645 11.3834C11.6103 11.4513 11.5027 11.4556 11.4242 11.393C11.3457 11.3303 11.326 11.2245 11.3803 11.1565C11.4345 11.0886 11.542 11.0843 11.6205 11.147Z" fill="#CFC59E"/>
<path d="M11.4767 10.4672C11.5816 10.5509 11.6079 10.6924 11.5354 10.7832C11.463 10.874 11.3192 10.8797 11.2143 10.796C11.1093 10.7123 11.083 10.5708 11.1555 10.48C11.2279 10.3892 11.3717 10.3835 11.4767 10.4672Z" fill="#CFC59E"/>
<path d="M11.416 7.56039C11.5209 7.64412 11.5472 7.7856 11.4748 7.8764C11.4023 7.9672 11.2585 7.97293 11.1536 7.88921C11.0487 7.80548 11.0224 7.664 11.0948 7.5732C11.1673 7.4824 11.3111 7.47667 11.416 7.56039Z" fill="#CFC59E"/>
<path d="M10.7552 7.80518C10.8916 7.91403 10.9259 8.09797 10.8317 8.21602C10.7375 8.33407 10.5505 8.34153 10.4141 8.23267C10.2777 8.12382 10.2435 7.93989 10.3377 7.82184C10.4319 7.70379 10.6188 7.69633 10.7552 7.80518Z" fill="#CFC59E"/>
<path d="M10.9886 6.62891C11.125 6.73776 11.1593 6.9217 11.0651 7.03975C10.9709 7.1578 10.7839 7.16526 10.6475 7.05641C10.5111 6.94755 10.4769 6.76362 10.5711 6.64557C10.6653 6.52752 10.8522 6.52006 10.9886 6.62891Z" fill="#CFC59E"/>
<path d="M12.2214 10.4812C12.3578 10.5901 12.392 10.774 12.2978 10.892C12.2036 11.0101 12.0166 11.0176 11.8802 10.9087C11.7438 10.7998 11.7096 10.6159 11.8038 10.4979C11.898 10.3798 12.0849 10.3724 12.2214 10.4812Z" fill="#CFC59E"/>
<path d="M12.309 12.127C12.4454 12.2359 12.4796 12.4198 12.3854 12.5379C12.2912 12.6559 12.1043 12.6634 11.9679 12.5545C11.8315 12.4457 11.7972 12.2617 11.8914 12.1437C11.9856 12.0256 12.1726 12.0182 12.309 12.127Z" fill="#CFC59E"/>
<path d="M15.1997 19.5592C18.6581 18.4257 20.3002 14.6476 19.9071 12.1415L8.13752 16.3042C8.02127 16.7343 8.16198 17.7813 8.5008 18.2659C9.64877 19.9079 12.373 20.4856 15.1997 19.5592Z" fill="white"/>
<path fill-rule="evenodd" clip-rule="evenodd" d="M20.1453 11.7421C20.264 11.8129 20.3451 11.9329 20.3665 12.0694C20.582 13.4435 20.2385 15.12 19.4023 16.5945C18.5621 18.0759 17.2027 19.3921 15.3446 20.0011C12.4231 20.9585 9.43607 20.4152 8.11976 18.5324C7.89199 18.2066 7.75733 17.7437 7.68996 17.3414C7.62331 16.9436 7.60432 16.495 7.68869 16.1829C7.72857 16.0353 7.83842 15.9168 7.98253 15.8658L19.7521 11.7031C19.8824 11.657 20.0265 11.6713 20.1453 11.7421ZM19.9071 12.1415L8.13758 16.3042C8.02133 16.7343 8.16204 17.7813 8.50086 18.2659C9.64883 19.908 12.3731 20.4856 15.1998 19.5592C18.4456 18.4954 20.0915 15.1022 19.9566 12.6172C19.9478 12.4545 19.9313 12.2956 19.9071 12.1415Z" fill="#968960"/>
<path fill-rule="evenodd" clip-rule="evenodd" d="M8.09736 16.6959L8.53189 16.1647L8.1375 16.3042C8.11009 16.4056 8.09697 16.5413 8.09736 16.6959ZM19.9071 12.1415C20.295 14.615 18.7006 18.3275 15.3339 19.5135C16.9833 17.6715 17.4693 15.0587 17.0161 13.164L19.9071 12.1415Z" fill="#F4F3DB"/>
<path fill-rule="evenodd" clip-rule="evenodd" d="M16.7164 18.83C19.1306 17.2518 20.2374 14.2475 19.9071 12.1415L18.4528 12.6558C18.832 14.5372 18.3213 17.0477 16.7164 18.83ZM8.21106 17.5648L9.69196 15.7544L8.1375 16.3042C8.06384 16.5767 8.09335 17.0969 8.21106 17.5648Z" fill="#DEDCB1"/>
<path d="M19.8149 11.8837C20.2933 13.0087 18.0743 15.0293 14.8585 16.3971C11.6428 17.7648 8.64805 17.9616 8.1696 16.8367C7.69115 15.7117 9.91017 13.6911 13.1259 12.3233C16.3417 10.9556 19.3364 10.7588 19.8149 11.8837Z" fill="#FDFCE4"/>
<path fill-rule="evenodd" clip-rule="evenodd" d="M19.035 14.3932C18.0901 15.2536 16.6832 16.1262 15.0404 16.825C13.3975 17.5237 11.7931 17.9318 10.5179 18.0156C9.88261 18.0574 9.30239 18.0205 8.83176 17.8806C8.36483 17.7419 7.93708 17.4784 7.74155 17.0187C7.54601 16.5589 7.65294 16.0681 7.87685 15.6355C8.10255 15.1994 8.47845 14.7559 8.9492 14.3272C9.89409 13.4668 11.3009 12.5942 12.9438 11.8954C14.5866 11.1967 16.191 10.7886 17.4662 10.7048C18.1016 10.663 18.6818 10.6999 19.1524 10.8398C19.6193 10.9785 20.0471 11.242 20.2426 11.7017C20.4382 12.1615 20.3312 12.6523 20.1073 13.0849C19.8816 13.521 19.5057 13.9645 19.035 14.3932ZM14.8584 16.3971C18.0741 15.0293 20.2932 13.0087 19.8147 11.8837C19.3363 10.7588 16.3415 10.9556 13.1258 12.3233C9.91002 13.6911 7.691 15.7117 8.16945 16.8367C8.6479 17.9616 11.6426 17.7648 14.8584 16.3971Z" fill="#968960"/>
<path d="M15.9106 13.3209C16.2796 14.1336 14.9652 15.5249 12.9748 16.4286C10.9844 17.3322 9.07183 17.4059 8.70286 16.5933C8.3339 15.7806 9.6483 14.3892 11.6387 13.4856C13.629 12.5819 15.5416 12.5082 15.9106 13.3209Z" fill="white"/>
<path fill-rule="evenodd" clip-rule="evenodd" d="M16.6757 11.4098C18.1559 11.183 19.132 11.4969 19.47 11.7223C19.5769 11.7935 19.6058 11.9379 19.5345 12.0447C19.4633 12.1515 19.319 12.1804 19.2121 12.1092C18.998 11.9664 18.149 11.6545 16.7461 11.8695C15.5035 12.0599 14.8911 12.277 14.4992 12.416C14.4436 12.4357 14.3924 12.4538 14.3444 12.4701C14.2229 12.5114 14.0908 12.4463 14.0495 12.3247C14.0082 12.2031 14.0733 12.0711 14.1949 12.0298C14.2419 12.0139 14.2925 11.9959 14.3479 11.9763C14.7463 11.8351 15.3905 11.6068 16.6757 11.4098Z" fill="#E6E4BC"/>
<path d="M14.2348 15.8895C14.2105 15.7577 14.0212 15.6821 13.8121 15.7207C13.6029 15.7592 13.4531 15.8974 13.4774 16.0293C13.5018 16.1611 13.691 16.2367 13.9002 16.1981C14.1093 16.1596 14.2591 16.0214 14.2348 15.8895Z" fill="#E9E8CB"/>
<path d="M15.6361 15.1826C15.6117 15.0507 15.4225 14.9751 15.2133 15.0137C15.0042 15.0523 14.8544 15.1904 14.8787 15.3223C14.903 15.4541 15.0923 15.5298 15.3014 15.4912C15.5106 15.4526 15.6604 15.3144 15.6361 15.1826Z" fill="#E9E8CB"/>
<path d="M12.2316 15.5375C12.2073 15.4057 12.018 15.3301 11.8089 15.3687C11.5998 15.4073 11.4499 15.5454 11.4743 15.6773C11.4986 15.8091 11.6879 15.8847 11.897 15.8461C12.1061 15.8076 12.256 15.6694 12.2316 15.5375Z" fill="#E9E8CB"/>
<path d="M10.7791 16.7264C10.7548 16.5945 10.5655 16.5189 10.3564 16.5575C10.1472 16.5961 9.99742 16.7343 10.0217 16.8661C10.0461 16.998 10.2353 17.0736 10.4445 17.035C10.6536 16.9964 10.8034 16.8582 10.7791 16.7264Z" fill="#E9E8CB"/>
<path d="M13.0971 16.3102C13.0802 16.219 12.9493 16.1667 12.8046 16.1934C12.66 16.2201 12.5563 16.3157 12.5732 16.4069C12.59 16.4981 12.7209 16.5504 12.8656 16.5237C13.0103 16.497 13.1139 16.4014 13.0971 16.3102Z" fill="#E9E8CB"/>
<path d="M11.2078 15.9876C11.191 15.8964 11.0601 15.8441 10.9154 15.8708C10.7708 15.8975 10.6671 15.993 10.6839 16.0842C10.7008 16.1755 10.8317 16.2278 10.9764 16.2011C11.121 16.1744 11.2247 16.0788 11.2078 15.9876Z" fill="#E9E8CB"/>
<path d="M9.2502 16.7621C9.23338 16.6709 9.10246 16.6186 8.95779 16.6452C8.81312 16.6719 8.70948 16.7675 8.72631 16.8587C8.74313 16.9499 8.87405 17.0022 9.01872 16.9755C9.16339 16.9488 9.26703 16.8533 9.2502 16.7621Z" fill="#E9E8CB"/>
<path d="M13.1332 15.6169C13.1164 15.5257 12.9855 15.4734 12.8408 15.5C12.6961 15.5267 12.5925 15.6223 12.6093 15.7135C12.6261 15.8047 12.757 15.857 12.9017 15.8303C13.0464 15.8036 13.15 15.7081 13.1332 15.6169Z" fill="#E9E8CB"/>
<path d="M14.562 15.1506C14.5451 15.0594 14.4142 15.0071 14.2696 15.0338C14.1249 15.0605 14.0212 15.1561 14.0381 15.2473C14.0549 15.3385 14.1858 15.3908 14.3305 15.3641C14.4752 15.3374 14.5788 15.2418 14.562 15.1506Z" fill="#E9E8CB"/>
<path d="M12.2136 16.2837C12.1968 16.1925 12.0659 16.1402 11.9212 16.1669C11.7766 16.1935 11.6729 16.2891 11.6897 16.3803C11.7066 16.4715 11.8375 16.5238 11.9822 16.4971C12.1268 16.4705 12.2305 16.3749 12.2136 16.2837Z" fill="#E9E8CB"/>
<path d="M11.4316 16.5791C11.4198 16.5153 11.3282 16.4787 11.2269 16.4973C11.1256 16.516 11.0531 16.5829 11.0649 16.6468C11.0766 16.7106 11.1683 16.7472 11.2696 16.7286C11.3708 16.7099 11.4434 16.643 11.4316 16.5791Z" fill="#E9E8CB"/>
<path d="M9.87807 16.4434C9.86629 16.3796 9.77464 16.343 9.67337 16.3617C9.57209 16.3804 9.49955 16.4473 9.51132 16.5111C9.5231 16.575 9.61475 16.6116 9.71603 16.5929C9.8173 16.5742 9.88985 16.5073 9.87807 16.4434Z" fill="#E9E8CB"/>
<path d="M13.6358 15.1386C13.624 15.0748 13.5323 15.0382 13.4311 15.0569C13.3298 15.0755 13.2572 15.1424 13.269 15.2063C13.2808 15.2701 13.3724 15.3068 13.4737 15.2881C13.575 15.2694 13.6475 15.2025 13.6358 15.1386Z" fill="#E9E8CB"/>
<path d="M16.0518 14.627C16.04 14.5632 15.9483 14.5266 15.8471 14.5453C15.7458 14.5639 15.6733 14.6309 15.685 14.6947C15.6968 14.7585 15.7885 14.7952 15.8897 14.7765C15.991 14.7578 16.0636 14.6909 16.0518 14.627Z" fill="#E9E8CB"/>
<path d="M14.9196 14.7069C14.911 14.6602 14.8441 14.6335 14.7701 14.6471C14.6962 14.6608 14.6432 14.7096 14.6518 14.7563C14.6604 14.8029 14.7273 14.8296 14.8013 14.816C14.8752 14.8023 14.9282 14.7535 14.9196 14.7069Z" fill="#E9E8CB"/>
<path d="M15.0385 13.7484C15.2071 14.1448 14.4429 14.8492 13.3317 15.3219C12.2205 15.7945 11.183 15.8563 11.0144 15.4599C10.8458 15.0635 11.61 14.359 12.7212 13.8864C13.8324 13.4138 14.8699 13.352 15.0385 13.7484Z" fill="#FFB72B"/>
<path fill-rule="evenodd" clip-rule="evenodd" d="M14.9801 14.8483C14.6228 15.1778 14.105 15.4982 13.5136 15.7497C12.9223 16.0012 12.3324 16.152 11.8472 16.1809C11.6067 16.1952 11.3655 16.1813 11.1545 16.1164C10.9463 16.0523 10.703 15.9159 10.5864 15.6418C10.4699 15.3677 10.5404 15.0978 10.6386 14.9034C10.7382 14.7064 10.8955 14.523 11.0726 14.3598C11.43 14.0303 11.9478 13.7099 12.5391 13.4584C13.1304 13.2069 13.7204 13.0561 14.2056 13.0272C14.446 13.0129 14.6873 13.0268 14.8982 13.0917C15.1064 13.1558 15.3497 13.2922 15.4663 13.5663C15.5829 13.8404 15.5124 14.1103 15.4141 14.3047C15.3145 14.5017 15.1572 14.6851 14.9801 14.8483ZM13.3316 15.3218C14.4429 14.8492 15.207 14.1447 15.0384 13.7483C14.8698 13.3519 13.8323 13.4137 12.7211 13.8863C11.6099 14.3589 10.8458 15.0634 11.0143 15.4598C11.1829 15.8562 12.2204 15.7944 13.3316 15.3218Z" fill="#D89A24"/>
<path fill-rule="evenodd" clip-rule="evenodd" d="M14.7828 13.9314C14.7722 14.0594 14.6599 14.1545 14.5319 14.1439C14.1922 14.1158 13.7611 14.2306 13.5883 14.2938C13.4677 14.3379 13.3342 14.2759 13.2901 14.1553C13.2461 14.0347 13.3081 13.9011 13.4287 13.8571C13.627 13.7846 14.1324 13.6442 14.5703 13.6805C14.6983 13.6911 14.7934 13.8035 14.7828 13.9314Z" fill="#FFE58A"/>
</g>
<defs>
<clipPath id="clip0_114_411">
<rect width="22.32" height="22.32" fill="white"/>
</clipPath>
</defs>
</svg>
