<svg width="22" height="22" viewBox="0 0 22 22" fill="none" xmlns="http://www.w3.org/2000/svg">
<path d="M10.8912 9.87419C9.91406 11.2451 9.12105 11.2672 8.86928 13.4625C8.5659 16.1079 10.4657 18.3029 13.0853 18.6034C15.7049 18.9038 18.0287 17.4021 18.3321 14.7567C18.5838 12.5614 17.7436 12.2561 17.0328 10.6498C16.2449 8.86938 17.1763 6.5362 14.4094 6.21888C11.4053 5.87436 12.0411 8.2608 10.8912 9.87419Z" fill="#A4D31F"/>
<path fill-rule="evenodd" clip-rule="evenodd" d="M9.85078 10.3773C10.0602 10.1548 10.2763 9.91435 10.5024 9.59712C10.7473 9.25344 10.9053 8.85712 11.0509 8.42242C11.0824 8.32831 11.1139 8.22997 11.1462 8.12932C11.255 7.79028 11.3723 7.425 11.5241 7.10677C11.7305 6.67404 12.0287 6.26018 12.5316 5.99537C13.0273 5.73439 13.6577 5.65214 14.4638 5.74459C15.2239 5.83177 15.7908 6.06497 16.2004 6.44462C16.6083 6.82281 16.8086 7.29908 16.9264 7.76985C17.0136 8.11848 17.0633 8.50328 17.1097 8.86304C17.1239 8.97312 17.1378 9.08085 17.1524 9.18449C17.2178 9.64961 17.3004 10.0748 17.4694 10.4567C17.6349 10.8307 17.8085 11.1308 17.9795 11.4133C18.0065 11.4578 18.0338 11.5026 18.0612 11.5476C18.2037 11.781 18.3504 12.0213 18.473 12.2741C18.7854 12.9184 18.9411 13.6367 18.8064 14.8112C18.4674 17.7672 15.8609 19.4023 13.0309 19.0777C10.1708 18.7497 8.05913 16.3364 8.39496 13.4082C8.52861 12.2428 8.81497 11.6002 9.23171 11.0657C9.39081 10.8616 9.56892 10.6742 9.7402 10.494C9.77747 10.4548 9.81442 10.4159 9.85078 10.3773ZM10.0804 10.8292C10.3283 10.5682 10.6017 10.2804 10.8912 9.87423C11.2482 9.37329 11.4331 8.79783 11.6083 8.25272C11.9972 7.04218 12.3381 5.98136 14.4094 6.21891C16.3145 6.43741 16.4663 7.61164 16.6333 8.90309C16.7088 9.48723 16.7874 10.0953 17.0328 10.6498C17.2399 11.1179 17.458 11.4754 17.6568 11.8015C18.1405 12.5945 18.5105 13.2011 18.3321 14.7568C18.0287 17.4021 15.7049 18.9038 13.0853 18.6034C10.4657 18.303 8.5659 16.1079 8.86928 13.4626C9.04646 11.9177 9.49165 11.449 10.0804 10.8292Z" fill="#5B7C14"/>
<path fill-rule="evenodd" clip-rule="evenodd" d="M9.8748 16.9047C10.2546 17.1375 10.674 17.3241 11.1261 17.455C13.6588 18.1885 16.2006 17.0956 16.9413 14.5381C17.3768 13.034 17.1133 12.3742 16.7688 11.5115C16.6271 11.1569 16.4718 10.7679 16.3457 10.2719C16.1963 9.68423 16.2203 9.07153 16.2434 8.48298C16.2603 8.05108 16.2767 7.63219 16.2237 7.24575C16.4796 7.71408 16.5547 8.29561 16.6333 8.90308C16.7088 9.48722 16.7874 10.0953 17.0328 10.6498C17.2399 11.1178 17.4579 11.4754 17.6568 11.8015C18.1405 12.5945 18.5105 13.2011 18.332 14.7567C18.0287 17.4021 15.7049 18.9038 13.0853 18.6034C11.7718 18.4528 10.6394 17.8258 9.8748 16.9047Z" fill="#92BC1B"/>
<path d="M12.1543 10.507C12.6357 10.8619 12.551 11.7938 11.9651 12.5884C11.3791 13.383 10.5139 13.7394 10.0325 13.3845C9.55114 13.0295 9.63586 12.0976 10.2218 11.303C10.8077 10.5084 11.6729 10.152 12.1543 10.507Z" fill="#BBEB35"/>
<path d="M13.7151 6.65367C13.8814 6.84147 13.765 7.21631 13.455 7.49091C13.145 7.7655 12.7589 7.83587 12.5925 7.64808C12.4262 7.46028 12.5426 7.08544 12.8526 6.81084C13.1626 6.53625 13.5487 6.46588 13.7151 6.65367Z" fill="#BBEB35"/>
<path fill-rule="evenodd" clip-rule="evenodd" d="M11.0592 11.632C11.2502 11.8137 11.2577 12.1159 11.076 12.3069C10.9866 12.4009 10.9355 12.4815 10.9078 12.547C10.8051 12.7899 10.525 12.9035 10.2821 12.8008C10.0393 12.698 9.92569 12.4179 10.0284 12.1751C10.1102 11.9818 10.2337 11.8069 10.3842 11.6488C10.5659 11.4578 10.8681 11.4502 11.0592 11.632Z" fill="white"/>
<path d="M18.1376 3.81744C18.1376 3.81744 17.1959 5.10793 16.3092 5.45281C15.4224 5.79769 14.3914 5.27451 14.3914 5.27451C14.3914 5.27451 14.798 4.19216 15.6847 3.84728C16.5714 3.5024 18.1376 3.81744 18.1376 3.81744Z" fill="#87D623"/>
<path fill-rule="evenodd" clip-rule="evenodd" d="M18.5233 4.09886L18.1377 3.81742L18.2318 3.34936C18.3914 3.38146 18.5236 3.49265 18.5826 3.64436C18.6416 3.79606 18.6193 3.96737 18.5233 4.09886ZM17.5959 3.73599C17.9177 3.77317 18.1377 3.81742 18.1377 3.81742C18.1377 3.81742 18.0054 3.99868 17.7933 4.2435C17.4395 4.65191 16.8636 5.23717 16.3092 5.4528C15.4225 5.79768 14.3914 5.27449 14.3914 5.27449C14.3914 5.27449 14.798 4.19215 15.6847 3.84727C16.2391 3.63164 17.0591 3.67397 17.5959 3.73599ZM14.3914 5.27449C13.9445 5.1066 13.9446 5.10646 13.9446 5.10632L13.9447 5.10601L13.945 5.10532L13.9456 5.10365L13.9474 5.09911C13.9487 5.09556 13.9505 5.09098 13.9527 5.08542C13.9572 5.07431 13.9633 5.05927 13.9712 5.04075C13.9869 5.00376 14.0096 4.95265 14.0395 4.89117C14.099 4.76877 14.1886 4.60214 14.3103 4.42246C14.5475 4.07225 14.9388 3.62511 15.5117 3.40231C16.0609 3.1887 16.7663 3.1905 17.2775 3.22678C17.5441 3.2457 17.7804 3.27596 17.95 3.30145C18.0351 3.31424 18.1041 3.32591 18.1524 3.33453C18.1766 3.33884 18.1957 3.34239 18.2091 3.34494L18.2249 3.34799L18.2295 3.3489L18.2315 3.34929L18.2318 3.34936C18.2319 3.34938 18.2318 3.34936 18.1377 3.81742C18.5233 4.09886 18.5234 4.09879 18.5233 4.09886L18.5231 4.09916L18.5219 4.10077L18.5191 4.10455L18.5096 4.11748C18.5014 4.12842 18.4897 4.14393 18.4748 4.16345C18.445 4.20247 18.4021 4.25766 18.348 4.32457C18.2401 4.45802 18.0864 4.63996 17.9026 4.83403C17.5503 5.20621 17.0315 5.68415 16.4823 5.89776C15.9094 6.12056 15.3188 6.05534 14.9073 5.95744C14.6962 5.90722 14.5176 5.84489 14.391 5.79489C14.3274 5.76976 14.2761 5.74743 14.2395 5.73077C14.2212 5.72243 14.2065 5.71548 14.1958 5.71029C14.1904 5.70769 14.186 5.70552 14.1826 5.70383L14.1782 5.70166L14.1766 5.70086L14.1757 5.70038C14.1755 5.70031 14.1754 5.70025 14.3914 5.27449ZM13.9445 5.1066L14.3914 5.27449L14.1754 5.70025C13.9584 5.59013 13.8589 5.33441 13.9445 5.1066Z" fill="#156319"/>
<path d="M16.2514 5.31734C17.0053 5.02412 17.823 3.97058 17.823 3.97058C16.1592 4.19711 15.0063 4.89085 14.6378 5.20941C14.6378 5.20941 15.4975 5.61056 16.2514 5.31734Z" fill="#79C01E"/>
<path d="M13.2517 3.82163C13.5428 3.98284 14.1502 5.25849 14.2878 5.88686C14.2993 5.93928 14.4439 5.90243 14.4345 5.8567C14.4143 5.28899 14.2294 3.91084 13.9086 3.42181C13.4696 3.3977 13.2667 3.6994 13.2517 3.82163Z" fill="#8C5936"/>
<path fill-rule="evenodd" clip-rule="evenodd" d="M12.9963 4.22504C12.841 4.1268 12.7551 3.94724 12.7778 3.76322C12.8044 3.54747 12.9453 3.33889 13.1193 3.19692C13.3164 3.03609 13.5932 2.92634 13.9348 2.9451C14.0862 2.95341 14.2247 3.03316 14.3078 3.15995C14.4256 3.33941 14.513 3.56886 14.5801 3.79012C14.6496 4.01896 14.7072 4.27301 14.7536 4.52227C14.8439 5.00654 14.8979 5.50425 14.9108 5.81704C14.9366 6.08023 14.7499 6.23629 14.6987 6.27365C14.6201 6.33106 14.5377 6.35967 14.476 6.37386C14.4157 6.38774 14.3224 6.40002 14.2174 6.37764C14.1169 6.35623 13.8821 6.2661 13.8214 5.98897C13.7645 5.72903 13.597 5.29252 13.3989 4.88981C13.3016 4.69206 13.2038 4.51657 13.1181 4.38635C13.0752 4.32099 13.0398 4.27412 13.0136 4.24387C13.0058 4.23492 13 4.22884 12.9963 4.22504ZM14.4345 5.8567C14.4345 5.85605 14.4344 5.85541 14.4344 5.85476C14.4304 5.74354 14.4201 5.60148 14.4037 5.44126C14.3742 5.15244 14.325 4.80456 14.2574 4.47176C14.1706 4.0448 14.0535 3.64265 13.9086 3.42181C13.7806 3.41478 13.6726 3.43545 13.5836 3.4713C13.489 3.50938 13.4157 3.56459 13.3622 3.62192C13.2935 3.69567 13.2577 3.77291 13.2516 3.82163C13.3912 3.89888 13.6033 4.23203 13.8016 4.62724C13.9403 4.90371 14.0722 5.21055 14.1677 5.4814C14.2169 5.62088 14.2564 5.75081 14.2822 5.86213C14.2842 5.87048 14.286 5.87872 14.2878 5.88686C14.2993 5.93928 14.4439 5.90243 14.4345 5.8567ZM13.9567 5.85548C13.9567 5.88603 13.9598 5.91849 13.9668 5.95284C13.9615 5.92677 13.9583 5.9003 13.9574 5.87371C13.9572 5.86774 13.9569 5.86167 13.9567 5.85548Z" fill="#583A24"/>
<path d="M14.0018 3.48488C14.0687 3.60474 13.9536 3.79647 13.7447 3.91314C13.5358 4.02981 13.3122 4.02723 13.2453 3.90738C13.1783 3.78753 13.2934 3.59579 13.5023 3.47912C13.7112 3.36245 13.9348 3.36503 14.0018 3.48488Z" fill="#C27A49"/>
<path d="M16.6111 13.3664C16.5849 13.5942 16.3791 13.7576 16.1513 13.7315C15.9235 13.7054 15.76 13.4995 15.7862 13.2718C15.8123 13.044 16.0181 12.8805 16.2459 12.9066C16.4737 12.9327 16.6372 13.1386 16.6111 13.3664Z" fill="#83A918"/>
<path d="M17.7538 14.3332C17.7277 14.561 17.5218 14.7245 17.294 14.6983C17.0663 14.6722 16.9028 14.4664 16.9289 14.2386C16.955 14.0108 17.1609 13.8473 17.3887 13.8734C17.6164 13.8996 17.7799 14.1054 17.7538 14.3332Z" fill="#83A918"/>
<path d="M17.7013 12.969C17.6817 13.1399 17.5273 13.2625 17.3565 13.2429C17.1857 13.2233 17.063 13.0689 17.0826 12.8981C17.1022 12.7272 17.2566 12.6046 17.4275 12.6242C17.5983 12.6438 17.7209 12.7982 17.7013 12.969Z" fill="#83A918"/>
<path d="M17.5882 15.7768C17.5621 16.0045 17.3563 16.168 17.1285 16.1419C16.9007 16.1158 16.7372 15.9099 16.7633 15.6822C16.7895 15.4544 16.9953 15.2909 17.2231 15.317C17.4509 15.3431 17.6144 15.549 17.5882 15.7768Z" fill="#83A918"/>
<path d="M16.4455 14.81C16.4194 15.0377 16.2135 15.2012 15.9857 15.1751C15.7579 15.149 15.5945 14.9431 15.6206 14.7154C15.6467 14.4876 15.8526 14.3241 16.0803 14.3502C16.3081 14.3763 16.4716 14.5822 16.4455 14.81Z" fill="#83A918"/>
<path d="M16.6214 16.9195C16.5953 17.1473 16.3895 17.3108 16.1617 17.2847C15.9339 17.2586 15.7704 17.0527 15.7965 16.8249C15.8227 16.5971 16.0285 16.4336 16.2563 16.4598C16.4841 16.4859 16.6476 16.6917 16.6214 16.9195Z" fill="#83A918"/>
<path d="M15.455 16.1589C15.4289 16.3867 15.2231 16.5502 14.9953 16.5241C14.7675 16.4979 14.604 16.2921 14.6301 16.0643C14.6562 15.8365 14.8621 15.673 15.0899 15.6992C15.3177 15.7253 15.4812 15.9311 15.455 16.1589Z" fill="#83A918"/>
<path d="M15.4839 17.7293C15.4643 17.9001 15.3099 18.0227 15.1391 18.0031C14.9682 17.9836 14.8456 17.8292 14.8652 17.6583C14.8848 17.4875 15.0392 17.3649 15.21 17.3845C15.3809 17.4041 15.5035 17.5584 15.4839 17.7293Z" fill="#83A918"/>
<path d="M9.07726 9.15778C9.07726 9.15778 9.02923 10.6987 8.44351 11.3834C7.73757 12.2086 6.37854 11.8982 6.37854 11.8982C6.37854 11.8982 6.2776 10.6781 7.08046 9.86286C7.69804 9.23575 9.07726 9.15778 9.07726 9.15778Z" fill="#10BC17"/>
<path fill-rule="evenodd" clip-rule="evenodd" d="M9.43243 9.16885L9.07729 9.15778L9.05724 8.80303C9.15672 8.79741 9.25399 8.83382 9.32533 8.90338C9.39668 8.97294 9.43553 9.06926 9.43243 9.16885ZM8.71976 9.19776C8.93429 9.16586 9.07729 9.15778 9.07729 9.15778C9.07729 9.15778 9.07287 9.2995 9.05038 9.51609C8.99871 10.0137 8.85163 10.9064 8.44354 11.3834C7.7376 12.2086 6.37857 11.8981 6.37857 11.8981C6.37857 11.8981 6.27763 10.6781 7.08049 9.86286C7.49921 9.43768 8.26804 9.26493 8.71976 9.19776ZM6.37857 11.8981C6.02447 11.9274 6.02446 11.9273 6.02445 11.9272L6.02442 11.9269L6.02437 11.9262L6.02424 11.9246L6.02389 11.9199C6.02363 11.9162 6.0233 11.9113 6.02295 11.9053C6.02223 11.8934 6.0214 11.8768 6.0207 11.8562C6.01929 11.8151 6.01841 11.7573 6.02014 11.6862C6.02357 11.5444 6.03742 11.3472 6.07905 11.1217C6.16158 10.6747 6.35841 10.0897 6.82733 9.61355C7.21073 9.22423 7.79526 9.02991 8.2302 8.92903C8.45628 8.87659 8.66075 8.84533 8.80872 8.82711C8.88294 8.81797 8.94355 8.81204 8.98629 8.80836C9.00767 8.80651 9.02463 8.80523 9.03662 8.80438C9.04261 8.80396 9.04738 8.80364 9.05083 8.80342L9.05504 8.80316L9.05688 8.80305L9.05724 8.80303C9.05732 8.80303 9.05724 8.80303 9.07729 9.15778C9.43243 9.16885 9.43243 9.16877 9.43243 9.16885L9.4324 9.16964L9.43236 9.17099L9.4322 9.17537C9.43207 9.17902 9.43187 9.18411 9.43159 9.19059C9.43103 9.20353 9.43015 9.22199 9.42883 9.24538C9.42619 9.29213 9.42177 9.35872 9.41458 9.4404C9.40024 9.60331 9.3747 9.82846 9.32969 10.0771C9.24324 10.5547 9.0727 11.1945 8.71353 11.6144C8.26963 12.1332 7.63751 12.2768 7.1675 12.3049C6.92754 12.3192 6.71401 12.3046 6.56063 12.2867C6.48356 12.2776 6.42064 12.2676 6.37594 12.2597C6.35356 12.2557 6.33567 12.2522 6.32278 12.2495C6.31633 12.2482 6.31112 12.2471 6.30721 12.2463L6.30233 12.2452L6.30064 12.2448L6.2997 12.2446C6.29958 12.2446 6.29945 12.2445 6.37857 11.8981ZM6.02447 11.9274L6.37857 11.8981L6.29945 12.2445C6.14849 12.2101 6.03724 12.0818 6.02447 11.9274Z" fill="#156319"/>
<path d="M8.20462 11.3233C8.69939 10.8209 8.83759 9.55967 8.83759 9.55967C7.57169 10.3106 7.01076 11.3781 6.84145 11.7727C6.84145 11.7727 7.70986 11.8257 8.20462 11.3233Z" fill="#07A00E"/>
<path d="M3.70008 11.0081C3.70008 11.0081 4.76546 10.4896 5.44068 10.6431C6.25449 10.8281 6.52947 11.8636 6.52947 11.8636C6.52947 11.8636 5.73568 12.3687 4.89395 12.1142C4.24647 11.9184 3.70008 11.0081 3.70008 11.0081Z" fill="#13CA1B"/>
<path fill-rule="evenodd" clip-rule="evenodd" d="M3.54463 10.6887L3.70012 11.0081L3.39547 11.191C3.3442 11.1056 3.33115 11.0025 3.35951 10.907C3.38787 10.8115 3.45503 10.7323 3.54463 10.6887ZM3.9056 11.3045C3.77635 11.1351 3.70012 11.0081 3.70012 11.0081C3.70012 11.0081 3.83167 10.9441 4.03162 10.8677C4.40068 10.7267 5.00276 10.5436 5.44071 10.6431C6.25453 10.8282 6.52951 11.8636 6.52951 11.8636C6.52951 11.8636 5.73571 12.3687 4.89399 12.1142C4.48835 11.9916 4.12239 11.5885 3.9056 11.3045ZM6.52951 11.8636C6.72024 12.1634 6.72014 12.1635 6.72003 12.1636L6.71979 12.1637L6.71926 12.164L6.71799 12.1649L6.71454 12.167C6.71185 12.1687 6.70837 12.1708 6.70414 12.1734C6.69567 12.1785 6.68414 12.1853 6.66975 12.1935C6.64098 12.2099 6.60058 12.2319 6.55003 12.257C6.44929 12.3069 6.30618 12.3698 6.13292 12.4236C5.79031 12.5302 5.30408 12.6094 4.79115 12.4543C4.36562 12.3256 4.01147 11.982 3.78526 11.7199C3.66639 11.5822 3.57022 11.4519 3.50369 11.356C3.4703 11.3079 3.44403 11.2679 3.42576 11.2394C3.41661 11.2252 3.40944 11.2137 3.40437 11.2055L3.39832 11.1957L3.39649 11.1927L3.39588 11.1917L3.39547 11.191C3.39543 11.1909 3.39547 11.191 3.70012 11.0081C3.54463 10.6887 3.54456 10.6887 3.54463 10.6887L3.54528 10.6883L3.54633 10.6878L3.54958 10.6863L3.56061 10.681C3.56992 10.6766 3.58313 10.6705 3.59986 10.6629C3.63329 10.6476 3.68096 10.6265 3.73997 10.6018C3.85758 10.5525 4.02227 10.4884 4.2105 10.4292C4.56779 10.3167 5.08241 10.1973 5.51949 10.2967C6.06279 10.4202 6.40211 10.821 6.59436 11.139C6.69305 11.3022 6.7615 11.4573 6.8054 11.5713C6.82749 11.6286 6.84374 11.6766 6.85474 11.7112C6.86025 11.7286 6.86447 11.7427 6.86747 11.753C6.86897 11.7582 6.87017 11.7624 6.87107 11.7657L6.87221 11.7698L6.87262 11.7713L6.87285 11.7722C6.87288 11.7723 6.87291 11.7725 6.52951 11.8636ZM6.72024 12.1634L6.52951 11.8636L6.87292 11.7725C6.91266 11.9221 6.8509 12.0803 6.72024 12.1634Z" fill="#156319"/>
<path fill-rule="evenodd" clip-rule="evenodd" d="M3.86291 10.9355C3.76101 10.9785 3.70011 11.0081 3.70011 11.0081C3.70011 11.0081 4.2465 11.9184 4.89398 12.1142C5.7357 12.3687 6.5295 11.8636 6.5295 11.8636C6.5295 11.8636 6.46393 11.6167 6.30206 11.3425C6.03835 11.4922 5.46533 11.7503 4.83968 11.6061C4.46201 11.519 4.10174 11.1957 3.86291 10.9355Z" fill="#33ED3B"/>
<path d="M10.938 14.723C11.3646 16.8483 9.98742 18.917 7.86209 19.3435C5.73677 19.7701 3.66808 18.3929 3.24155 16.2676C2.81501 14.1423 4.19215 12.0736 6.31748 11.6471C8.4428 11.2205 10.5115 12.5977 10.938 14.723Z" fill="#FE9F81"/>
<path fill-rule="evenodd" clip-rule="evenodd" d="M11.2864 14.6531C11.7515 16.9708 10.2497 19.2268 7.93201 19.6919C5.61429 20.1571 3.35833 18.6553 2.89319 16.3375C2.42804 14.0198 3.92985 11.7639 6.24757 11.2987C8.56529 10.8336 10.8212 12.3354 11.2864 14.6531ZM7.86209 19.3436C9.98742 18.917 11.3646 16.8483 10.938 14.723C10.5115 12.5977 8.4428 11.2205 6.31748 11.6471C4.19216 12.0736 2.81501 14.1423 3.24155 16.2676C3.66808 18.3929 5.73677 19.7701 7.86209 19.3436Z" fill="#AB442D"/>
<path fill-rule="evenodd" clip-rule="evenodd" d="M9.43487 18.6439C8.25311 18.6983 6.88006 17.8005 6.04448 16.3077C5.01459 14.4677 5.18217 12.4044 6.40391 11.6307C6.37511 11.6358 6.3463 11.6413 6.31747 11.6471C4.19215 12.0736 2.81501 14.1423 3.24154 16.2676C3.66807 18.393 5.73676 19.7701 7.86209 19.3436C8.45136 19.2253 8.98312 18.9808 9.43487 18.6439Z" fill="#FF7E6C"/>
<path d="M7.35484 12.0395C7.87346 12.1967 8.10272 12.9548 7.8669 13.7327C7.63109 14.5106 7.0195 15.0138 6.50088 14.8566C5.98225 14.6994 5.753 13.9413 5.98881 13.1634C6.22463 12.3855 6.83622 11.8823 7.35484 12.0395Z" fill="#FEC0AC"/>
<path fill-rule="evenodd" clip-rule="evenodd" d="M6.63666 13.2427C6.82636 13.2929 6.93946 13.4874 6.88927 13.6771C6.85501 13.8066 6.84998 13.929 6.87084 14.0478C6.90476 14.2411 6.77558 14.4253 6.5823 14.4592C6.38902 14.4931 6.20484 14.3639 6.17092 14.1706C6.13144 13.9457 6.14301 13.7194 6.20229 13.4953C6.25248 13.3056 6.44696 13.1925 6.63666 13.2427Z" fill="white"/>
<path fill-rule="evenodd" clip-rule="evenodd" d="M6.27326 11.5551C6.73328 11.2709 7.26368 11.2171 7.71988 11.2777C7.81715 11.2906 7.88553 11.3799 7.87261 11.4772C7.8597 11.5744 7.77039 11.6428 7.67312 11.6299C7.27459 11.577 6.83241 11.6273 6.46001 11.8574C6.09257 12.0844 5.77091 12.4999 5.63173 13.2226C5.34909 14.6902 5.92935 15.8865 6.24103 16.2867C6.30131 16.3641 6.28744 16.4757 6.21003 16.536C6.13262 16.5963 6.021 16.5824 5.96071 16.505C5.59827 16.0397 4.97735 14.7415 5.28283 13.1554C5.4377 12.3512 5.80828 11.8424 6.27326 11.5551Z" fill="#AB442D"/>
<path d="M7.47301 18.5302C7.61199 18.6789 7.60408 18.9122 7.45534 19.0511C7.3066 19.1901 7.07336 19.1822 6.93438 19.0335C6.7954 18.8847 6.80332 18.6515 6.95205 18.5125C7.10079 18.3735 7.33403 18.3815 7.47301 18.5302Z" fill="#EC6B59"/>
<path d="M8.58342 18.1806C8.7224 18.3294 8.71449 18.5626 8.56575 18.7016C8.41701 18.8406 8.18377 18.8327 8.04479 18.6839C7.90582 18.5352 7.91373 18.3019 8.06246 18.163C8.2112 18.024 8.44444 18.0319 8.58342 18.1806Z" fill="#EC6B59"/>
<path d="M7.87263 17.3278C7.98049 17.4432 7.97435 17.6242 7.85892 17.7321C7.74349 17.8399 7.56248 17.8338 7.45463 17.7183C7.34677 17.6029 7.35291 17.4219 7.46834 17.3141C7.58377 17.2062 7.76478 17.2123 7.87263 17.3278Z" fill="#EC6B59"/>
<path d="M9.29487 17.8599C9.40272 17.9754 9.39658 18.1564 9.28115 18.2642C9.16573 18.3721 8.98472 18.3659 8.87687 18.2505C8.76901 18.1351 8.77515 17.9541 8.89058 17.8462C9.00601 17.7384 9.18701 17.7445 9.29487 17.8599Z" fill="#EC6B59"/>
<path d="M6.7909 17.592C6.89876 17.7074 6.89262 17.8884 6.77719 17.9963C6.66176 18.1041 6.48076 18.098 6.3729 17.9826C6.26505 17.8671 6.27119 17.6861 6.38661 17.5783C6.50204 17.4704 6.68305 17.4766 6.7909 17.592Z" fill="#EC6B59"/>
<path d="M5.28699 17.2391C5.39485 17.3546 5.38871 17.5356 5.27328 17.6434C5.15785 17.7513 4.97685 17.7451 4.86899 17.6297C4.76114 17.5143 4.76728 17.3333 4.88271 17.2254C4.99813 17.1176 5.17914 17.1237 5.28699 17.2391Z" fill="#EC6B59"/>
<path d="M9.57221 16.9227C9.68007 17.0382 9.67393 17.2192 9.5585 17.327C9.44307 17.4349 9.26207 17.4287 9.15421 17.3133C9.04636 17.1979 9.0525 17.0169 9.16792 16.909C9.28335 16.8012 9.46436 16.8073 9.57221 16.9227Z" fill="#EC6B59"/>
<path d="M6.34699 18.5288C6.45485 18.6442 6.44871 18.8252 6.33328 18.933C6.21785 19.0409 6.03685 19.0348 5.92899 18.9193C5.82114 18.8039 5.82728 18.6229 5.9427 18.515C6.05813 18.4072 6.23914 18.4133 6.34699 18.5288Z" fill="#EC6B59"/>
<path d="M5.96646 17.7347C6.02097 17.793 6.01787 17.8845 5.95953 17.939C5.90119 17.9935 5.80971 17.9904 5.75519 17.9321C5.70068 17.8738 5.70379 17.7823 5.76213 17.7278C5.82046 17.6733 5.91195 17.6764 5.96646 17.7347Z" fill="#EC6B59"/>
<path d="M4.43185 17.2881C4.48636 17.3464 4.48326 17.4379 4.42492 17.4924C4.36658 17.5469 4.2751 17.5438 4.22059 17.4855C4.16608 17.4271 4.16918 17.3356 4.22752 17.2811C4.28586 17.2266 4.37734 17.2297 4.43185 17.2881Z" fill="#EC6B59"/>
<path d="M10.0762 17.4236C10.1307 17.482 10.1276 17.5734 10.0693 17.6279C10.0109 17.6825 9.91945 17.6793 9.86494 17.621C9.81043 17.5627 9.81353 17.4712 9.87187 17.4167C9.93021 17.3622 10.0217 17.3653 10.0762 17.4236Z" fill="#EC6B59"/>
<path d="M8.75204 17.1458C8.80655 17.2041 8.80345 17.2956 8.74511 17.3501C8.68677 17.4046 8.59529 17.4015 8.54078 17.3432C8.48627 17.2848 8.48937 17.1934 8.54771 17.1388C8.60605 17.0843 8.69753 17.0874 8.75204 17.1458Z" fill="#EC6B59"/>
<path d="M10.2848 16.657C10.3393 16.7153 10.3362 16.8068 10.2778 16.8613C10.2195 16.9158 10.128 16.9127 10.0735 16.8544C10.019 16.7961 10.0221 16.7046 10.0804 16.6501C10.1388 16.5956 10.2302 16.5987 10.2848 16.657Z" fill="#EC6B59"/>
<path d="M5.43547 18.0242C5.52549 18.1206 5.52037 18.2717 5.42402 18.3617C5.32768 18.4517 5.1766 18.4466 5.08658 18.3502C4.99656 18.2539 5.00169 18.1028 5.09803 18.0128C5.19437 17.9228 5.34545 17.9279 5.43547 18.0242Z" fill="#EC6B59"/>
</svg>
