<svg width="22" height="22" viewBox="0 0 22 22" fill="none" xmlns="http://www.w3.org/2000/svg">
<path d="M4.8125 8.11218C4.8125 8.11218 6.05655 9.476 11.0327 9.476C16.0089 9.476 17.253 8.11218 17.253 8.11218L15.4076 17.778C15.3938 17.8499 15.3718 17.92 15.3292 17.9795C15.1089 18.2871 14.1688 19.2501 11.0327 19.2501C7.89668 19.2501 6.9566 18.2871 6.73631 17.9795C6.69369 17.92 6.67163 17.8499 6.65791 17.778L4.8125 8.11218Z" fill="#F47A53"/>
<path fill-rule="evenodd" clip-rule="evenodd" d="M4.60734 7.7023C4.78826 7.61175 5.0068 7.65063 5.14539 7.79712C5.14564 7.79737 5.14596 7.79768 5.14634 7.79805C5.14977 7.80137 5.15847 7.80957 5.17304 7.822C5.20216 7.84683 5.25498 7.88871 5.3365 7.94234C5.49939 8.04948 5.77836 8.20444 6.21385 8.36358C7.08558 8.68213 8.58531 9.01765 11.0327 9.01765C13.4802 9.01765 14.9799 8.68213 15.8516 8.36358C16.2871 8.20444 16.5661 8.04948 16.729 7.94234C16.8105 7.88871 16.8633 7.84683 16.8924 7.822C16.907 7.80957 16.9157 7.80137 16.9191 7.79805C16.9195 7.79768 16.9198 7.79737 16.9201 7.79712C17.0587 7.65063 17.2772 7.61175 17.4581 7.7023C17.6416 7.79412 17.7416 7.99663 17.7032 8.19811L15.8578 17.8639C15.8382 17.9663 15.7994 18.11 15.7018 18.2463C15.3688 18.7112 14.2641 19.7084 11.0327 19.7084C7.80134 19.7084 6.69662 18.7112 6.36367 18.2463C6.26605 18.11 6.22723 17.9663 6.2077 17.8639L4.36229 8.19811C4.32382 7.99663 4.42391 7.79412 4.60734 7.7023ZM16.7157 8.48226C17.1072 8.27201 17.253 8.11216 17.253 8.11216L15.4076 17.778C15.3938 17.8499 15.3718 17.92 15.3292 17.9795C15.1089 18.2871 14.1688 19.25 11.0327 19.25C7.89667 19.25 6.9566 18.2871 6.7363 17.9795C6.69369 17.92 6.67163 17.8499 6.6579 17.778L4.81249 8.11216C4.81249 8.11216 4.9583 8.27201 5.34976 8.48226C6.10174 8.88613 7.76016 9.47598 11.0327 9.47598C14.3053 9.47598 15.9637 8.88613 16.7157 8.48226Z" fill="#C1461E"/>
<path d="M10.0907 19.2183C10.3803 19.2388 10.6937 19.25 11.0327 19.25C11.3718 19.25 11.6852 19.2388 11.9748 19.2183L12.5268 9.43109C12.0708 9.45983 11.5738 9.47596 11.0327 9.47596C10.4916 9.47596 9.99467 9.45983 9.53864 9.43109L10.0907 19.2183Z" fill="#FFE4C4"/>
<path d="M15.4076 17.778L17.253 8.11218C17.253 8.11218 16.5697 8.86122 14.1905 9.24908L13.5621 18.9708C14.7335 18.6617 15.1851 18.1806 15.3292 17.9795C15.3718 17.92 15.3939 17.8499 15.4076 17.778Z" fill="#E25F35"/>
<path d="M6.65659 17.7798L4.81118 8.11395C4.81118 8.11395 5.18509 8.52385 6.34286 8.89422L7.68707 18.6864C7.10469 18.419 6.8394 18.127 6.73511 17.9814C6.69248 17.9219 6.67032 17.8517 6.65659 17.7798Z" fill="#FFAA8F"/>
<path d="M15.4076 17.778L17.253 8.11218C17.253 8.11218 16.8791 8.52209 15.7213 8.89245L14.3771 18.6847C14.9595 18.4173 15.2247 18.1252 15.329 17.9797C15.3717 17.9202 15.3938 17.8499 15.4076 17.778Z" fill="#EE8E59"/>
<path fill-rule="evenodd" clip-rule="evenodd" d="M7.3394 10.4659C7.46638 10.4599 7.58264 10.5564 7.59906 10.6813L8.0359 14.0043C8.05232 14.1292 7.96269 14.2353 7.83571 14.2412C7.70872 14.2471 7.59246 14.1507 7.57604 14.0257L7.1392 10.7028C7.12278 10.5779 7.21241 10.4718 7.3394 10.4659Z" fill="#FFE6DF"/>
<path d="M13.9489 18.1863C13.9489 18.4165 13.7456 18.603 13.4947 18.603C13.2438 18.603 13.0405 18.4165 13.0405 18.1863C13.0405 17.9562 13.2438 17.7696 13.4947 17.7696C13.7456 17.7696 13.9489 17.9562 13.9489 18.1863Z" fill="#C04923"/>
<path d="M15.0677 17.6481C15.0677 17.8207 14.9152 17.9606 14.727 17.9606C14.5389 17.9606 14.3864 17.8207 14.3864 17.6481C14.3864 17.4754 14.5389 17.3355 14.727 17.3355C14.9152 17.3355 15.0677 17.4754 15.0677 17.6481Z" fill="#C04923"/>
<path d="M14.1444 17.0404C14.1444 17.213 13.9918 17.3529 13.8037 17.3529C13.6155 17.3529 13.463 17.213 13.463 17.0404C13.463 16.8678 13.6155 16.7278 13.8037 16.7278C13.9918 16.7278 14.1444 16.8678 14.1444 17.0404Z" fill="#C04923"/>
<path d="M15.5071 15.5818C15.5071 15.7544 15.3546 15.8943 15.1664 15.8943C14.9783 15.8943 14.8257 15.7544 14.8257 15.5818C14.8257 15.4092 14.9783 15.2692 15.1664 15.2692C15.3546 15.2692 15.5071 15.4092 15.5071 15.5818Z" fill="#C04923"/>
<path d="M14.5986 15.8944C14.5986 16.0095 14.497 16.1028 14.3715 16.1028C14.2461 16.1028 14.1444 16.0095 14.1444 15.8944C14.1444 15.7793 14.2461 15.686 14.3715 15.686C14.497 15.686 14.5986 15.7793 14.5986 15.8944Z" fill="#C04923"/>
<path d="M15.5071 14.6442C15.5071 14.7593 15.4054 14.8526 15.28 14.8526C15.1545 14.8526 15.0529 14.7593 15.0529 14.6442C15.0529 14.5291 15.1545 14.4359 15.28 14.4359C15.4054 14.4359 15.5071 14.5291 15.5071 14.6442Z" fill="#C04923"/>
<path d="M15.2611 16.6062C15.2611 16.7789 15.1085 16.9188 14.9204 16.9188C14.7322 16.9188 14.5797 16.7789 14.5797 16.6062C14.5797 16.4336 14.7322 16.2937 14.9204 16.2937C15.1085 16.2937 15.2611 16.4336 15.2611 16.6062Z" fill="#C04923"/>
<path d="M14.8258 14.7484C14.8258 14.921 14.6732 15.0609 14.4851 15.0609C14.2969 15.0609 14.1444 14.921 14.1444 14.7484C14.1444 14.5758 14.2969 14.4359 14.4851 14.4359C14.6732 14.4359 14.8258 14.5758 14.8258 14.7484Z" fill="#C04923"/>
<path d="M15.28 13.8107C15.28 13.9258 15.1783 14.0191 15.0529 14.0191C14.9274 14.0191 14.8257 13.9258 14.8257 13.8107C14.8257 13.6956 14.9274 13.6024 15.0529 13.6024C15.1783 13.6024 15.28 13.6956 15.28 13.8107Z" fill="#C04923"/>
<path d="M12.5673 18.3773C12.5673 18.4924 12.4657 18.5857 12.3402 18.5857C12.2148 18.5857 12.1131 18.4924 12.1131 18.3773C12.1131 18.2622 12.2148 18.1689 12.3402 18.1689C12.4657 18.1689 12.5673 18.2622 12.5673 18.3773Z" fill="#C04923"/>
<path d="M17.253 8.11213C17.253 9.11642 14.4681 9.93056 11.0327 9.93056C7.5974 9.93056 4.8125 9.11642 4.8125 8.11213C4.8125 7.10784 7.5974 6.2937 11.0327 6.2937C14.4681 6.2937 17.253 7.10784 17.253 8.11213Z" fill="#952C0A"/>
<path fill-rule="evenodd" clip-rule="evenodd" d="M15.5597 9.83789C14.3817 10.1823 12.7813 10.3889 11.0328 10.3889C9.2842 10.3889 7.6838 10.1823 6.50578 9.83789C5.9198 9.66659 5.41222 9.45376 5.04074 9.197C4.68326 8.94992 4.35419 8.59091 4.35419 8.11215C4.35419 7.63339 4.68326 7.27438 5.04074 7.0273C5.41222 6.77054 5.9198 6.55771 6.50578 6.38641C7.6838 6.04202 9.2842 5.83539 11.0328 5.83539C12.7813 5.83539 14.3817 6.04202 15.5597 6.38641C16.1457 6.55771 16.6533 6.77054 17.0248 7.0273C17.3823 7.27438 17.7113 7.63339 17.7113 8.11215C17.7113 8.59091 17.3823 8.94992 17.0248 9.197C16.6533 9.45376 16.1457 9.66659 15.5597 9.83789ZM11.0328 9.93058C14.4681 9.93058 17.253 9.11644 17.253 8.11215C17.253 7.10786 14.4681 6.29372 11.0328 6.29372C7.59742 6.29372 4.81252 7.10786 4.81252 8.11215C4.81252 9.11644 7.59742 9.93058 11.0328 9.93058Z" fill="#C1461E"/>
<path d="M17.253 7.88294C17.253 8.88723 14.4681 9.70137 11.0327 9.70137C7.59739 9.70137 4.8125 8.88723 4.8125 7.88294C4.8125 6.87865 7.59739 6.06451 11.0327 6.06451C14.4681 6.06451 17.253 6.87865 17.253 7.88294Z" fill="#E09C35"/>
<path d="M10.0117 5.90108C10.0117 6.67629 9.38326 7.30473 8.60805 7.30473C7.83284 7.30473 7.20441 6.67629 7.20441 5.90108C7.20441 5.12587 7.83284 4.49744 8.60805 4.49744C9.38326 4.49744 10.0117 5.12587 10.0117 5.90108Z" fill="#FFF8BB"/>
<path d="M6.61918 8.15447C6.61918 8.40873 6.41306 8.61484 6.1588 8.61484C5.90454 8.61484 5.69843 8.40873 5.69843 8.15447C5.69843 7.90021 5.90454 7.69409 6.1588 7.69409C6.41306 7.69409 6.61918 7.90021 6.61918 8.15447Z" fill="#FFF8BB"/>
<path d="M10.5846 9.02104C10.5846 9.2753 10.3785 9.48142 10.1243 9.48142C9.87 9.48142 9.66388 9.2753 9.66388 9.02104C9.66388 8.76679 9.87 8.56067 10.1243 8.56067C10.3785 8.56067 10.5846 8.76679 10.5846 9.02104Z" fill="#FFF8BB"/>
<path d="M15.8335 8.43437C15.8335 8.68863 15.6274 8.89475 15.3731 8.89475C15.1188 8.89475 14.9127 8.68863 14.9127 8.43437C14.9127 8.18012 15.1188 7.974 15.3731 7.974C15.6274 7.974 15.8335 8.18012 15.8335 8.43437Z" fill="#FFF8BB"/>
<path d="M12.2084 9.02104C12.2084 9.2753 12.0023 9.48142 11.748 9.48142C11.4938 9.48142 11.2877 9.2753 11.2877 9.02104C11.2877 8.76679 11.4938 8.56067 11.748 8.56067C12.0023 8.56067 12.2084 8.76679 12.2084 9.02104Z" fill="#FFF8BB"/>
<path d="M7.51438 6.70852C7.51438 7.48373 6.88595 8.11216 6.11074 8.11216C5.33553 8.11216 4.70709 7.48373 4.70709 6.70852C4.70709 5.9333 5.33553 5.30487 6.11074 5.30487C6.88595 5.30487 7.51438 5.9333 7.51438 6.70852Z" fill="#FFF8BB"/>
<path d="M13.9709 5.47677C13.9709 6.25198 13.3425 6.88041 12.5673 6.88041C11.7921 6.88041 11.1636 6.25198 11.1636 5.47677C11.1636 4.70155 11.7921 4.07312 12.5673 4.07312C13.3425 4.07312 13.9709 4.70155 13.9709 5.47677Z" fill="#FFF8BB"/>
<path d="M16.9516 7.08089C16.9516 7.8561 16.3232 8.48454 15.548 8.48454C14.7728 8.48454 14.1443 7.8561 14.1443 7.08089C14.1443 6.30568 14.7728 5.67725 15.548 5.67725C16.3232 5.67725 16.9516 6.30568 16.9516 7.08089Z" fill="#FFF8BB"/>
<path d="M12.1131 6.06453C12.1131 6.83975 11.4846 7.46818 10.7094 7.46818C9.93422 7.46818 9.30579 6.83975 9.30579 6.06453C9.30579 5.28932 9.93422 4.66089 10.7094 4.66089C11.4846 4.66089 12.1131 5.28932 12.1131 6.06453Z" fill="#FFF8BB"/>
<path d="M10.7094 4.63169C10.7094 5.20915 10.2413 5.67727 9.66386 5.67727C9.08641 5.67727 8.61829 5.20915 8.61829 4.63169C8.61829 4.05424 9.08641 3.58612 9.66386 3.58612C10.2413 3.58612 10.7094 4.05424 10.7094 4.63169Z" fill="#FFF8BB"/>
<path d="M8.37887 7.81852C8.37887 8.43157 7.88189 8.92855 7.26884 8.92855C6.65579 8.92855 6.15881 8.43157 6.15881 7.81852C6.15881 7.20547 6.65579 6.7085 7.26884 6.7085C7.88189 6.7085 8.37887 7.20547 8.37887 7.81852Z" fill="#FFF8BB"/>
<path d="M10.3077 7.95675C10.3077 8.67574 9.72488 9.2586 9.00589 9.2586C8.2869 9.2586 7.70404 8.67574 7.70404 7.95675C7.70404 7.23776 8.2869 6.65491 9.00589 6.65491C9.72488 6.65491 10.3077 7.23776 10.3077 7.95675Z" fill="#FFF8BB"/>
<path d="M15.3731 7.82419C15.3731 8.54318 14.7902 9.12603 14.0713 9.12603C13.3523 9.12603 12.7694 8.54318 12.7694 7.82419C12.7694 7.1052 13.3523 6.52234 14.0713 6.52234C14.7902 6.52234 15.3731 7.1052 15.3731 7.82419Z" fill="#FFF8BB"/>
<path d="M12.3345 8.04294C12.3345 8.76193 11.7517 9.34478 11.0327 9.34478C10.3137 9.34478 9.73083 8.76193 9.73083 8.04294C9.73083 7.32395 10.3137 6.74109 11.0327 6.74109C11.7517 6.74109 12.3345 7.32395 12.3345 8.04294Z" fill="#FFF8BB"/>
<path d="M14.2649 7.77585C14.2649 8.68468 13.5281 9.42144 12.6193 9.42144C11.7105 9.42144 10.9737 8.68468 10.9737 7.77585C10.9737 6.86701 11.7105 6.13025 12.6193 6.13025C13.5281 6.13025 14.2649 6.86701 14.2649 7.77585Z" fill="#FFF8BB"/>
<path d="M8.03103 5.47673C8.03103 6.05418 7.56291 6.5223 6.98545 6.5223C6.408 6.5223 5.93988 6.05418 5.93988 5.47673C5.93988 4.89927 6.408 4.43115 6.98545 4.43115C7.56291 4.43115 8.03103 4.89927 8.03103 5.47673Z" fill="#FFF8BB"/>
<path d="M12.1333 4.85551C12.1333 5.43296 11.6651 5.90108 11.0877 5.90108C10.5102 5.90108 10.0421 5.43296 10.0421 4.85551C10.0421 4.27806 10.5102 3.80994 11.0877 3.80994C11.6651 3.80994 12.1333 4.27806 12.1333 4.85551Z" fill="#FFF8BB"/>
<path d="M15.1135 5.54301C15.1135 6.12046 14.6454 6.58858 14.0679 6.58858C13.4905 6.58858 13.0223 6.12046 13.0223 5.54301C13.0223 4.96556 13.4905 4.49744 14.0679 4.49744C14.6454 4.49744 15.1135 4.96556 15.1135 5.54301Z" fill="#FFF8BB"/>
<path d="M16.2356 6.29374C16.2356 6.8712 15.7674 7.33931 15.19 7.33931C14.6125 7.33931 14.1444 6.8712 14.1444 6.29374C14.1444 5.71629 14.6125 5.24817 15.19 5.24817C15.7674 5.24817 16.2356 5.71629 16.2356 6.29374Z" fill="#FFF8BB"/>
<path d="M17.0346 6.2757C17.0346 6.71695 16.6769 7.07466 16.2356 7.07466C15.7944 7.07466 15.4366 6.71695 15.4366 6.2757C15.4366 5.83445 15.7944 5.47675 16.2356 5.47675C16.6769 5.47675 17.0346 5.83445 17.0346 6.2757Z" fill="#FFF8BB"/>
<path d="M12.9907 4.38508C12.9907 4.82633 12.633 5.18403 12.1918 5.18403C11.7505 5.18403 11.3928 4.82633 11.3928 4.38508C11.3928 3.94383 11.7505 3.58612 12.1918 3.58612C12.633 3.58612 12.9907 3.94383 12.9907 4.38508Z" fill="#FFF8BB"/>
<path d="M8.77095 7.46491C8.77095 7.69579 8.58379 7.88295 8.35291 7.88295C8.12204 7.88295 7.93488 7.69579 7.93488 7.46491C7.93488 7.23404 8.12204 7.04688 8.35291 7.04688C8.58379 7.04688 8.77095 7.23404 8.77095 7.46491Z" fill="#FDD27F"/>
<path d="M12.2289 5.60206C12.2289 5.83294 12.0417 6.0201 11.8109 6.0201C11.58 6.0201 11.3928 5.83294 11.3928 5.60206C11.3928 5.37118 11.58 5.18402 11.8109 5.18402C12.0417 5.18402 12.2289 5.37118 12.2289 5.60206Z" fill="#FDD27F"/>
<path d="M14.8258 7.75727C14.8258 7.98815 14.6386 8.17531 14.4077 8.17531C14.1768 8.17531 13.9897 7.98815 13.9897 7.75727C13.9897 7.5264 14.1768 7.33923 14.4077 7.33923C14.6386 7.33923 14.8258 7.5264 14.8258 7.75727Z" fill="#EEAC2B"/>
<path d="M15.8028 6.02006C15.8028 6.12117 15.7208 6.20314 15.6197 6.20314C15.5186 6.20314 15.4366 6.12117 15.4366 6.02006C15.4366 5.91894 15.5186 5.83698 15.6197 5.83698C15.7208 5.83698 15.8028 5.91894 15.8028 6.02006Z" fill="#EEAC2B"/>
<path d="M16.3614 6.77164C16.3614 6.87276 16.2794 6.95472 16.1783 6.95472C16.0772 6.95472 15.9952 6.87276 15.9952 6.77164C15.9952 6.67053 16.0772 6.58856 16.1783 6.58856C16.2794 6.58856 16.3614 6.67053 16.3614 6.77164Z" fill="#FDD27F"/>
<path d="M16.6018 8.1121C16.6018 8.21321 16.5198 8.29518 16.4187 8.29518C16.3176 8.29518 16.2356 8.21321 16.2356 8.1121C16.2356 8.01098 16.3176 7.92902 16.4187 7.92902C16.5198 7.92902 16.6018 8.01098 16.6018 8.1121Z" fill="#EEAC2B"/>
<path d="M15.5562 8.43436C15.5562 8.53548 15.4742 8.61744 15.3731 8.61744C15.272 8.61744 15.19 8.53548 15.19 8.43436C15.19 8.33325 15.272 8.25128 15.3731 8.25128C15.4742 8.25128 15.5562 8.33325 15.5562 8.43436Z" fill="#FDD27F"/>
<path d="M15.6923 7.33927C15.6923 7.44038 15.6103 7.52235 15.5092 7.52235C15.4081 7.52235 15.3261 7.44038 15.3261 7.33927C15.3261 7.23816 15.4081 7.15619 15.5092 7.15619C15.6103 7.15619 15.6923 7.23816 15.6923 7.33927Z" fill="#EEAC2B"/>
<path d="M14.7739 6.40543C14.7739 6.50655 14.6919 6.58852 14.5908 6.58852C14.4897 6.58852 14.4077 6.50655 14.4077 6.40543C14.4077 6.30432 14.4897 6.22235 14.5908 6.22235C14.6919 6.22235 14.7739 6.30432 14.7739 6.40543Z" fill="#FDD27F"/>
<path d="M12.6193 8.88303C12.6193 8.98414 12.5374 9.06611 12.4363 9.06611C12.3351 9.06611 12.2532 8.98414 12.2532 8.88303C12.2532 8.78192 12.3351 8.69995 12.4363 8.69995C12.5374 8.69995 12.6193 8.78192 12.6193 8.88303Z" fill="#EEAC2B"/>
<path d="M10.7238 4.57495C10.7238 4.65436 10.6594 4.71874 10.58 4.71874C10.5006 4.71874 10.4362 4.65436 10.4362 4.57495C10.4362 4.49553 10.5006 4.43115 10.58 4.43115C10.6594 4.43115 10.7238 4.49553 10.7238 4.57495Z" fill="#FDD27F"/>
<path d="M13.971 5.184C13.971 5.28511 13.889 5.36708 13.7879 5.36708C13.6868 5.36708 13.6048 5.28511 13.6048 5.184C13.6048 5.08288 13.6868 5.00092 13.7879 5.00092C13.889 5.00092 13.971 5.08288 13.971 5.184Z" fill="#FDD27F"/>
<path d="M12.4793 4.49741C12.4793 4.59853 12.3973 4.68049 12.2962 4.68049C12.1951 4.68049 12.1131 4.59853 12.1131 4.49741C12.1131 4.3963 12.1951 4.31433 12.2962 4.31433C12.3973 4.31433 12.4793 4.3963 12.4793 4.49741Z" fill="#FDD27F"/>
<path d="M13.1738 6.29368C13.1738 6.39479 13.0919 6.47676 12.9908 6.47676C12.8896 6.47676 12.8077 6.39479 12.8077 6.29368C12.8077 6.19256 12.8896 6.1106 12.9908 6.1106C13.0919 6.1106 13.1738 6.19256 13.1738 6.29368Z" fill="#EEAC2B"/>
<path d="M13.9896 6.83799C13.9896 6.9391 13.9077 7.02107 13.8066 7.02107C13.7054 7.02107 13.6235 6.9391 13.6235 6.83799C13.6235 6.73688 13.7054 6.65491 13.8066 6.65491C13.9077 6.65491 13.9896 6.73688 13.9896 6.83799Z" fill="#EEAC2B"/>
<path d="M12.412 6.77164C12.412 6.87276 12.33 6.95472 12.2289 6.95472C12.1278 6.95472 12.0458 6.87276 12.0458 6.77164C12.0458 6.67053 12.1278 6.58856 12.2289 6.58856C12.33 6.58856 12.412 6.67053 12.412 6.77164Z" fill="#FDD27F"/>
<path d="M13.0223 7.73373C13.0223 7.88041 12.9034 7.99932 12.7567 7.99932C12.6101 7.99932 12.4911 7.88041 12.4911 7.73373C12.4911 7.58705 12.6101 7.46814 12.7567 7.46814C12.9034 7.46814 13.0223 7.58705 13.0223 7.73373Z" fill="#FDD27F"/>
<path d="M13.9897 8.69992C13.9897 8.8466 13.8708 8.96551 13.7241 8.96551C13.5774 8.96551 13.4585 8.8466 13.4585 8.69992C13.4585 8.55323 13.5774 8.43433 13.7241 8.43433C13.8708 8.43433 13.9897 8.55323 13.9897 8.69992Z" fill="#FDD27F"/>
<path d="M10.5733 8.49227C10.5733 8.63896 10.4544 8.75786 10.3077 8.75786C10.161 8.75786 10.0421 8.63896 10.0421 8.49227C10.0421 8.34559 10.161 8.22668 10.3077 8.22668C10.4544 8.22668 10.5733 8.34559 10.5733 8.49227Z" fill="#FDD27F"/>
<path d="M11 7.02108C11 7.16776 10.8811 7.28667 10.7344 7.28667C10.5877 7.28667 10.4688 7.16776 10.4688 7.02108C10.4688 6.8744 10.5877 6.75549 10.7344 6.75549C10.8811 6.75549 11 6.8744 11 7.02108Z" fill="#FDD27F"/>
<path d="M7.18877 7.88296C7.18877 8.02964 7.06986 8.14855 6.92318 8.14855C6.7765 8.14855 6.65759 8.02964 6.65759 7.88296C6.65759 7.73628 6.7765 7.61737 6.92318 7.61737C7.06986 7.61737 7.18877 7.73628 7.18877 7.88296Z" fill="#FDD27F"/>
<path d="M6.65758 6.11062C6.65758 6.2573 6.53867 6.37621 6.39199 6.37621C6.24531 6.37621 6.1264 6.2573 6.1264 6.11062C6.1264 5.96394 6.24531 5.84503 6.39199 5.84503C6.53867 5.84503 6.65758 5.96394 6.65758 6.11062Z" fill="#FDD27F"/>
<path d="M9.13921 5.74233C9.13921 5.88902 9.0203 6.00792 8.87362 6.00792C8.72694 6.00792 8.60803 5.88902 8.60803 5.74233C8.60803 5.59565 8.72694 5.47675 8.87362 5.47675C9.0203 5.47675 9.13921 5.59565 9.13921 5.74233Z" fill="#FDD27F"/>
<path d="M9.7515 4.43114C9.7515 4.60022 9.61444 4.73728 9.44536 4.73728C9.27628 4.73728 9.13922 4.60022 9.13922 4.43114C9.13922 4.26206 9.27628 4.125 9.44536 4.125C9.61444 4.125 9.7515 4.26206 9.7515 4.43114Z" fill="#FFFFFE"/>
<path d="M11.8255 8.02626C11.8255 8.17479 11.7051 8.29519 11.5566 8.29519C11.4081 8.29519 11.2877 8.17479 11.2877 8.02626C11.2877 7.87773 11.4081 7.75732 11.5566 7.75732C11.7051 7.75732 11.8255 7.87773 11.8255 8.02626Z" fill="#FFFFFE"/>
<path d="M8.77096 8.48457C8.77096 8.6331 8.65056 8.75351 8.50203 8.75351C8.3535 8.75351 8.23309 8.6331 8.23309 8.48457C8.23309 8.33604 8.3535 8.21564 8.50203 8.21564C8.65056 8.21564 8.77096 8.33604 8.77096 8.48457Z" fill="#FFFFFE"/>
<path d="M9.93283 7.42512C9.93283 7.57365 9.81242 7.69406 9.66389 7.69406C9.51536 7.69406 9.39496 7.57365 9.39496 7.42512C9.39496 7.2766 9.51536 7.15619 9.66389 7.15619C9.81242 7.15619 9.93283 7.2766 9.93283 7.42512Z" fill="#FFFFFE"/>
<path d="M10.58 5.67726C10.58 5.82579 10.4596 5.9462 10.311 5.9462C10.1625 5.9462 10.0421 5.82579 10.0421 5.67726C10.0421 5.52873 10.1625 5.40833 10.311 5.40833C10.4596 5.40833 10.58 5.52873 10.58 5.67726Z" fill="#FFFFFE"/>
<path d="M7.72665 6.47212C7.72665 6.62065 7.60624 6.74106 7.45772 6.74106C7.30919 6.74106 7.18878 6.62065 7.18878 6.47212C7.18878 6.32359 7.30919 6.20319 7.45772 6.20319C7.60624 6.20319 7.72665 6.32359 7.72665 6.47212Z" fill="#FFFFFE"/>
<path d="M7.19546 5.13936C7.19546 5.28789 7.07506 5.40829 6.92653 5.40829C6.778 5.40829 6.65759 5.28789 6.65759 5.13936C6.65759 4.99083 6.778 4.87042 6.92653 4.87042C7.07506 4.87042 7.19546 4.99083 7.19546 5.13936Z" fill="#FFFFFE"/>
<path d="M6.05666 7.16532C6.05666 7.34609 5.91012 7.49263 5.72935 7.49263C5.54858 7.49263 5.40204 7.34609 5.40204 7.16532C5.40204 6.98455 5.54858 6.83801 5.72935 6.83801C5.91012 6.83801 6.05666 6.98455 6.05666 7.16532Z" fill="#FFFFFE"/>
</svg>
