<svg width="22" height="22" viewBox="0 0 22 22" fill="none" xmlns="http://www.w3.org/2000/svg">
<path d="M6.99542 7.11186C4.85364 6.92922 2.78421 8.66934 2.92259 10.8144C3.14476 14.7392 6.44002 16.1298 8.38388 16.1298C10.2352 16.1298 13.4749 14.8132 13.8452 10.8144C13.9836 8.66934 11.9141 6.92922 9.77235 7.11186C9.20749 7.16003 8.58139 7.50036 8.38388 7.53551C8.18639 7.50036 7.56028 7.16003 6.99542 7.11186Z" fill="#00162B" fill-opacity="0.2"/>
<path fill-rule="evenodd" clip-rule="evenodd" d="M14.2143 10.8434L14.2139 10.8486C13.8208 15.0934 10.3649 16.5 8.38388 16.5C7.33612 16.5 5.94594 16.1288 4.78248 15.2378C3.60716 14.3377 2.67086 12.9118 2.55301 10.8368C2.3987 8.42949 4.69843 6.54438 7.02688 6.74294C7.36294 6.7716 7.70052 6.88446 7.9587 6.98237C8.04647 7.01565 8.13266 7.05026 8.20626 7.07982C8.24019 7.09344 8.27145 7.10599 8.29895 7.11684C8.33188 7.12984 8.35995 7.14063 8.38388 7.14938C8.40782 7.14063 8.43589 7.12984 8.46882 7.11684C8.49632 7.10599 8.52757 7.09344 8.5615 7.07982C8.6351 7.05026 8.7213 7.01565 8.80907 6.98237C9.06725 6.88446 9.40482 6.7716 9.74089 6.74294C12.0698 6.54434 14.37 8.43026 14.2147 10.8383L14.2143 10.8434ZM8.38388 7.53551C8.3183 7.52384 8.20544 7.47851 8.06326 7.4214C7.7773 7.30654 7.3727 7.14403 6.99542 7.11186C4.85364 6.92922 2.78421 8.66934 2.92259 10.8144C3.14476 14.7392 6.44002 16.1298 8.38388 16.1298C10.2352 16.1298 13.4749 14.8132 13.8452 10.8144C13.9836 8.66934 11.9141 6.92922 9.77235 7.11186C9.39507 7.14403 8.99047 7.30654 8.70451 7.4214C8.56233 7.47851 8.44947 7.52384 8.38388 7.53551Z" fill="#00162B" fill-opacity="0.2"/>
<path d="M8.15546 6.43115C7.92108 4.70511 6.53261 4.98281 5.69954 4.05715C5.93414 4.62892 7.37495 6.20178 8.15546 6.43115Z" fill="#73B40D"/>
<path fill-rule="evenodd" clip-rule="evenodd" d="M8.40444 6.72083C8.50262 6.63644 8.55137 6.50806 8.53395 6.37977C8.46809 5.89473 8.31673 5.52327 8.09381 5.23073C7.87258 4.94042 7.59999 4.75326 7.33488 4.6087C7.20345 4.53703 7.06903 4.47335 6.94333 4.4143C6.93373 4.40979 6.92418 4.40531 6.91468 4.40085C6.79683 4.34552 6.68669 4.2938 6.57863 4.23736C6.34785 4.1168 6.14908 3.98569 5.98346 3.80167C5.8592 3.66359 5.65361 3.63495 5.49633 3.73379C5.33905 3.83263 5.27569 4.0303 5.34621 4.20216C5.42572 4.39595 5.58725 4.63561 5.77118 4.87176C5.96154 5.11617 6.19808 5.38473 6.45101 5.64091C6.70358 5.89673 6.97788 6.14567 7.24452 6.34809C7.50358 6.54475 7.7847 6.7203 8.04779 6.79762C8.172 6.83412 8.30625 6.80522 8.40444 6.72083ZM8.0524 5.9707C8.09714 6.10633 8.13207 6.25875 8.15548 6.43117C8.02775 6.39363 7.88233 6.32011 7.7274 6.22088C7.2853 5.93772 6.76581 5.44523 6.35905 4.98222C6.03738 4.61606 5.78621 4.26834 5.69956 4.05717C5.96122 4.34791 6.27766 4.51993 6.59593 4.67262C6.64767 4.69744 6.69946 4.72175 6.75106 4.74597C7.29177 4.99979 7.81279 5.24437 8.0524 5.9707Z" fill="#436C02"/>
<path d="M8.2918 6.9866C8.52618 5.26056 9.95748 4.42748 10.8831 4.61262C9.49465 4.79773 9.86491 6.55645 8.2918 6.9866Z" fill="#73B40D"/>
<path fill-rule="evenodd" clip-rule="evenodd" d="M8.04013 7.27388C7.94371 7.18941 7.89609 7.06221 7.91334 6.93519C8.17185 5.03152 9.7781 4.00208 10.958 4.23808C11.1411 4.27471 11.2709 4.43836 11.2649 4.62499C11.2588 4.81163 11.1187 4.96653 10.9336 4.9912C10.4557 5.05492 10.2819 5.35119 9.99315 5.88853L9.98967 5.895C9.71218 6.41136 9.34501 7.09457 8.39255 7.35501C8.26891 7.38882 8.13655 7.35835 8.04013 7.27388ZM8.3795 6.55479C8.34189 6.69185 8.31229 6.83581 8.29181 6.98659C8.44845 6.94376 8.58582 6.88776 8.70758 6.82145C9.20338 6.55143 9.4403 6.1105 9.6651 5.69211C9.77756 5.48282 9.88698 5.27916 10.0243 5.10536C10.222 4.85506 10.4775 4.66669 10.8831 4.61261C10.5561 4.5472 10.166 4.60888 9.78783 4.79212C9.18907 5.08224 8.62031 5.67711 8.3795 6.55479Z" fill="#436C02"/>
<path fill-rule="evenodd" clip-rule="evenodd" d="M8.29131 3.86035C8.50225 3.86035 8.67325 4.03135 8.67325 4.2423V7.01922C8.67325 7.23016 8.50225 7.40116 8.29131 7.40116C8.08036 7.40116 7.90936 7.23016 7.90936 7.01922V4.2423C7.90936 4.03135 8.08036 3.86035 8.29131 3.86035Z" fill="#457003"/>
<path d="M6.62518 6.74163C4.4834 6.55899 2.41397 8.29911 2.55235 10.4442C2.77452 14.3689 6.06977 15.7595 8.01364 15.7595C9.86491 15.7595 13.1047 14.443 13.4749 10.4442C13.6133 8.29911 11.5439 6.55899 9.4021 6.74163C8.83725 6.7898 8.21114 7.13013 8.01364 7.16528C7.81614 7.13013 7.19003 6.7898 6.62518 6.74163Z" fill="#FF3A1A"/>
<path fill-rule="evenodd" clip-rule="evenodd" d="M13.8557 10.4741L13.8552 10.4794C13.4615 14.732 9.99871 16.1414 8.01362 16.1414C6.96346 16.1414 5.57075 15.7695 4.40511 14.8768C3.22724 13.9748 2.28914 12.5458 2.17107 10.4672C2.01627 8.05165 4.32327 6.16196 6.65761 6.36102C6.99536 6.38982 7.3342 6.50318 7.59258 6.60116C7.68045 6.63449 7.76687 6.66919 7.84052 6.69876C7.87441 6.71237 7.90559 6.72489 7.93297 6.7357C7.96405 6.74796 7.99071 6.75823 8.01362 6.76666C8.03652 6.75823 8.06319 6.74796 8.09427 6.7357C8.12165 6.72489 8.15284 6.71237 8.18672 6.69876C8.26037 6.66919 8.34679 6.63449 8.43466 6.60116C8.69304 6.50318 9.03187 6.38982 9.36963 6.36102C11.7045 6.16192 14.012 8.05244 13.8561 10.4687L13.8557 10.4741ZM8.01362 7.16523C7.94803 7.15356 7.83518 7.10823 7.693 7.05112C7.40703 6.93626 7.00243 6.77376 6.62515 6.74158C4.48338 6.55894 2.41395 8.29906 2.55233 10.4442C2.77449 14.3689 6.06975 15.7595 8.01362 15.7595C9.86489 15.7595 13.1047 14.4429 13.4749 10.4442C13.6133 8.29906 11.5439 6.55894 9.40208 6.74158C9.02481 6.77376 8.62021 6.93626 8.33424 7.05112C8.19206 7.10823 8.07921 7.15356 8.01362 7.16523Z" fill="#A20505"/>
<path fill-rule="evenodd" clip-rule="evenodd" d="M3.42902 8.022C4.20735 7.15799 5.4045 6.63754 6.62515 6.74163C7.00243 6.77381 7.40703 6.93632 7.69299 7.05117C7.83517 7.10828 7.94803 7.15361 8.01361 7.16528C8.0792 7.15361 8.19206 7.10828 8.33424 7.05117C8.6202 6.93631 9.0248 6.77381 9.40208 6.74163C10.6938 6.63148 11.9593 7.22074 12.7299 8.17642C11.7252 7.66181 10.5166 7.3871 9.40209 7.48214C9.02481 7.51431 8.62021 7.67682 8.33425 7.79168C8.19206 7.84879 8.07921 7.89412 8.01362 7.90579C7.94803 7.89412 7.83518 7.84879 7.693 7.79168C7.40703 7.67682 7.00243 7.51431 6.62516 7.48214C5.47297 7.38389 4.35586 7.59774 3.42902 8.022Z" fill="#E83214"/>
<path fill-rule="evenodd" clip-rule="evenodd" d="M4.32489 14.3153C5.31993 14.9395 6.4251 15.2041 7.2731 15.2041C9.12437 15.2041 12.3642 13.8876 12.7344 9.88878C12.8004 8.86604 12.3645 7.93535 11.6581 7.26123C12.7807 7.91372 13.5617 9.09936 13.4749 10.4442C13.1047 14.4429 9.86488 15.7595 8.01362 15.7595C6.94725 15.7595 5.4742 15.341 4.32489 14.3153Z" fill="#E83214"/>
<path d="M8.29126 6.32397C9.58716 5.16795 9.95742 6.46387 11.1608 6.64899C10.5528 6.76009 8.90561 6.85725 8.29126 6.32397Z" fill="#8ED918"/>
<path fill-rule="evenodd" clip-rule="evenodd" d="M7.90937 6.32658C7.90863 6.21682 7.95514 6.11204 8.03705 6.03897C8.39057 5.72362 8.72156 5.5382 9.05609 5.48402C9.39945 5.42841 9.68853 5.52035 9.93166 5.642C10.0505 5.70147 10.1643 5.77107 10.2685 5.83631C10.2908 5.85026 10.3125 5.86397 10.334 5.87748C10.417 5.92974 10.4951 5.97895 10.578 6.02681C10.7814 6.14429 10.9835 6.23529 11.2189 6.27151C11.4032 6.29986 11.5401 6.45718 11.5427 6.64364C11.5453 6.83011 11.4129 6.99121 11.2295 7.02473C10.8967 7.08554 10.3035 7.13958 9.70921 7.1096C9.41105 7.09456 9.10146 7.05787 8.81854 6.98536C8.54054 6.91412 8.25789 6.80075 8.04094 6.61243C7.95804 6.54048 7.91011 6.43634 7.90937 6.32658ZM8.60176 6.08085C8.5042 6.14575 8.40108 6.22607 8.29131 6.32399C8.38581 6.40603 8.50476 6.47315 8.64061 6.52759C9.09127 6.70819 9.72789 6.74931 10.2751 6.73288C10.6352 6.72206 10.9566 6.68632 11.1608 6.64901C10.8519 6.60149 10.5979 6.48079 10.3691 6.34716C10.2857 6.29848 10.2057 6.24809 10.1276 6.19889C9.65542 5.90153 9.25261 5.64785 8.60176 6.08085Z" fill="#436C02"/>
<path d="M8.01358 6.46386C7.2731 5.53821 6.43999 6.09359 4.8664 6.18616C5.51434 6.55641 7.29232 6.84016 8.01358 6.46386Z" fill="#8ED918"/>
<path fill-rule="evenodd" clip-rule="evenodd" d="M8.38731 6.54261C8.41085 6.43087 8.38315 6.31446 8.31182 6.22529C8.09112 5.9494 7.84596 5.76354 7.56346 5.65883C7.28606 5.55601 7.00287 5.54285 6.72581 5.56218C6.49263 5.57845 6.2393 5.62027 5.9824 5.66268C5.9405 5.66959 5.89851 5.67653 5.8565 5.68336C5.54883 5.73345 5.21728 5.78293 4.84396 5.80489C4.67523 5.81481 4.53309 5.93446 4.49452 6.09903C4.45595 6.26359 4.53014 6.43393 4.67689 6.51779C5.06639 6.74037 5.73242 6.91188 6.36922 6.98447C6.69446 7.02155 7.02918 7.03491 7.33676 7.01222C7.63799 6.98999 7.94364 6.93117 8.19024 6.80251C8.29148 6.74969 8.36377 6.65434 8.38731 6.54261ZM7.71864 6.17368C7.81947 6.24823 7.9173 6.34354 8.01357 6.46388C7.90367 6.52122 7.76924 6.56323 7.61801 6.59195C7.07527 6.69501 6.31616 6.62683 5.69828 6.4812C5.35842 6.40109 5.06128 6.29754 4.86639 6.18617C5.17661 6.16793 5.45806 6.13169 5.71569 6.09236C5.83078 6.07479 5.94112 6.0566 6.04715 6.03913C6.75116 5.92308 7.26514 5.83836 7.71864 6.17368Z" fill="#436C02"/>
<path d="M6.70944 7.87817C7.08991 8.44433 6.70991 9.36594 5.86068 9.93665C5.01145 10.5074 4.01458 10.5111 3.6341 9.94491C3.25363 9.37876 3.63363 8.45714 4.48286 7.88643C5.33209 7.31572 6.32896 7.31202 6.70944 7.87817Z" fill="#FE7B7B"/>
<path fill-rule="evenodd" clip-rule="evenodd" d="M5.13251 8.32776C5.25634 8.49853 5.21828 8.73735 5.04751 8.86118C4.92251 8.95182 4.82848 9.05768 4.76017 9.1795C4.65701 9.3635 4.42422 9.42902 4.24023 9.32586C4.05623 9.22269 3.99071 8.98991 4.09387 8.80591C4.21881 8.58308 4.38897 8.39512 4.59909 8.24276C4.76987 8.11893 5.00869 8.15698 5.13251 8.32776Z" fill="white"/>
<path d="M11.3673 11.9729C11.245 12.1388 11.0115 12.1742 10.8456 12.052C10.6796 11.9297 10.6442 11.6962 10.7665 11.5303C10.8887 11.3644 11.1223 11.3289 11.2882 11.4512C11.4541 11.5734 11.4895 11.807 11.3673 11.9729Z" fill="#C5270E"/>
<path d="M11.9595 13.2034C11.8373 13.3693 11.6037 13.4047 11.4378 13.2825C11.2719 13.1602 11.2365 12.9266 11.3587 12.7607C11.4809 12.5948 11.7145 12.5594 11.8804 12.6816C12.0463 12.8039 12.0817 13.0375 11.9595 13.2034Z" fill="#C5270E"/>
<path d="M12.4041 11.9412C12.3124 12.0656 12.1372 12.0922 12.0128 12.0005C11.8883 11.9088 11.8618 11.7336 11.9535 11.6092C12.0451 11.4848 12.2203 11.4582 12.3447 11.5499C12.4692 11.6416 12.4957 11.8168 12.4041 11.9412Z" fill="#C5270E"/>
<path d="M11.0184 14.1702C10.8962 14.3361 10.6626 14.3715 10.4967 14.2493C10.3308 14.1271 10.2954 13.8935 10.4176 13.7276C10.5398 13.5617 10.7734 13.5263 10.9393 13.6485C11.1052 13.7707 11.1406 14.0043 11.0184 14.1702Z" fill="#C5270E"/>
<path d="M10.6601 12.958C10.5378 13.1239 10.3042 13.1593 10.1383 13.0371C9.97243 12.9149 9.93703 12.6813 10.0593 12.5154C10.1815 12.3495 10.4151 12.3141 10.581 12.4363C10.7469 12.5585 10.7823 12.7921 10.6601 12.958Z" fill="#C5270E"/>
<path d="M9.62765 14.7258C9.50542 14.8917 9.27184 14.9271 9.10593 14.8049C8.94002 14.6826 8.90462 14.449 9.02685 14.2831C9.14908 14.1172 9.38266 14.0818 9.54857 14.204C9.71448 14.3263 9.74988 14.5599 9.62765 14.7258Z" fill="#C5270E"/>
<path d="M9.48221 13.5505C9.35997 13.7164 9.12639 13.7518 8.96048 13.6296C8.79458 13.5074 8.75917 13.2738 8.8814 13.1079C9.00363 12.942 9.23722 12.9066 9.40312 13.0288C9.56903 13.151 9.60444 13.3846 9.48221 13.5505Z" fill="#C5270E"/>
<path d="M8.16974 14.925C8.07807 15.0494 7.90288 15.0759 7.77845 14.9843C7.65402 14.8926 7.62747 14.7174 7.71914 14.593C7.81082 14.4685 7.986 14.442 8.11043 14.5337C8.23486 14.6253 8.26142 14.8005 8.16974 14.925Z" fill="#C5270E"/>
<path d="M14.4935 13.0191C12.2297 15.4566 10.0684 19.7662 7.82489 17.6332C5.58135 15.5001 9.78377 13.1311 12.0476 10.6937C14.3114 8.25623 16.0878 7.46238 16.7632 8.10453C17.4386 8.74668 16.7573 10.5817 14.4935 13.0191Z" fill="#00162B" fill-opacity="0.2"/>
<path fill-rule="evenodd" clip-rule="evenodd" d="M9.59485 18.5529C8.89012 18.7339 8.19545 18.5489 7.54699 17.9324C6.89834 17.3157 6.6762 16.6281 6.82235 15.9091C6.95919 15.2358 7.4084 14.595 7.9467 14.0003C8.49148 13.3984 9.17717 12.7916 9.85037 12.197L9.87434 12.1758C10.5474 11.5814 11.2088 10.9972 11.7519 10.4125C12.9004 9.17586 13.9469 8.33174 14.8153 7.87923C15.2486 7.65339 15.6593 7.51366 16.0299 7.48594C16.4061 7.4578 16.7675 7.54517 17.0411 7.80532C17.315 8.06569 17.4231 8.42507 17.4176 8.80648C17.4123 9.18187 17.2986 9.60426 17.1017 10.0547C16.7071 10.9573 15.9374 12.064 14.7892 13.3003C14.2714 13.8578 13.757 14.5183 13.2321 15.1922C13.1983 15.2356 13.1645 15.2791 13.1306 15.3225C12.577 16.0329 12.01 16.7528 11.4384 17.3306C10.8731 17.9018 10.2576 18.3826 9.59485 18.5529ZM12.9166 14.9339C13.4382 14.2642 13.963 13.5903 14.4935 13.0191C16.7573 10.5817 17.4386 8.74668 16.7632 8.10453C16.0878 7.46238 14.3114 8.25623 12.0476 10.6937C11.4907 11.2933 10.8164 11.8888 10.1496 12.4777C8.10619 14.2825 6.1333 16.0249 7.82489 17.6332C9.54272 19.2664 11.2123 17.1225 12.9166 14.9339Z" fill="#00162B" fill-opacity="0.2"/>
<path d="M17.091 15.3833C14.4589 17.4071 12.0574 21.4054 9.80512 18.4069C7.55284 15.4083 12.0035 14.138 14.6356 12.1143C17.2676 10.0905 18.6586 10.1754 19.3367 11.0781C20.0147 11.9809 19.7231 13.3595 17.091 15.3833Z" fill="#00162B" fill-opacity="0.2"/>
<path fill-rule="evenodd" clip-rule="evenodd" d="M11.5131 19.8945C10.7698 19.8751 10.0937 19.4697 9.48201 18.6553C8.87031 17.8409 8.6653 17.0733 8.8459 16.3435C9.01999 15.64 9.53166 15.0662 10.1342 14.5752C10.7412 14.0806 11.5004 13.6234 12.247 13.1763C12.2651 13.1654 12.2833 13.1545 12.3014 13.1436C13.0407 12.7009 13.7697 12.2644 14.39 11.7874C15.7254 10.7606 16.7962 10.2274 17.657 10.093C18.0939 10.0248 18.4867 10.0578 18.8312 10.1911C19.177 10.325 19.4502 10.5507 19.6598 10.8297C19.8693 11.1087 20.0111 11.4354 20.046 11.8084C20.0807 12.1799 20.0069 12.5717 19.825 12.9793C19.4664 13.7825 18.672 14.6834 17.3366 15.7102C16.7162 16.1872 16.1052 16.7809 15.4857 17.383L15.44 17.4273C14.8143 18.0353 14.1756 18.653 13.542 19.1122C12.9131 19.5681 12.2296 19.9132 11.5131 19.8945ZM15.2125 17.0792C15.8258 16.4831 16.4516 15.8749 17.091 15.3833C19.7231 13.3595 20.0147 11.9809 19.3367 11.0781C18.6586 10.1754 17.2676 10.0905 14.6356 12.1143C13.9962 12.6059 13.2495 13.053 12.5176 13.4913C10.2367 14.8572 8.09998 16.1367 9.80512 18.4069C11.5103 20.677 13.301 18.9368 15.2125 17.0792Z" fill="#00162B" fill-opacity="0.2"/>
<path d="M14.0877 12.6085C11.8238 15.046 9.6626 19.3556 7.41906 17.2226C5.17553 15.0895 9.37795 12.7205 11.6418 10.2831C13.9056 7.84563 15.682 7.05178 16.3574 7.69393C17.0328 8.33609 16.3515 10.1711 14.0877 12.6085Z" fill="#4CAA1F"/>
<path fill-rule="evenodd" clip-rule="evenodd" d="M9.18903 18.1423C8.4843 18.3233 7.78962 18.1383 7.14117 17.5218C6.49252 16.9051 6.27038 16.2175 6.41652 15.4985C6.55336 14.8252 7.00258 14.1844 7.54087 13.5897C8.08566 12.9878 8.77134 12.381 9.44455 11.7864L9.46852 11.7652C10.1416 11.1708 10.803 10.5866 11.346 10.0019C12.4946 8.76525 13.5411 7.92114 14.4094 7.46863C14.8428 7.24279 15.2535 7.10305 15.6241 7.07534C16.0003 7.04719 16.3617 7.13457 16.6353 7.39472C16.9092 7.65508 17.0172 8.01447 17.0118 8.39587C17.0065 8.77127 16.8928 9.19365 16.6959 9.64409C16.3013 10.5466 15.5316 11.6534 14.3834 12.8897C13.8656 13.4472 13.3512 14.1077 12.8263 14.7816C12.7925 14.825 12.7587 14.8685 12.7248 14.9119C12.1712 15.6223 11.6042 16.3422 11.0326 16.92C10.4673 17.4912 9.8518 17.972 9.18903 18.1423ZM12.5108 14.5233C13.0324 13.8536 13.5572 13.1796 14.0877 12.6085C16.3515 10.1711 17.0328 8.33608 16.3574 7.69393C15.682 7.05178 13.9056 7.84563 11.6418 10.2831C11.0848 10.8827 10.4106 11.4782 9.74382 12.0671C7.70036 13.8719 5.72747 15.6143 7.41907 17.2226C9.1369 18.8558 10.8065 16.7119 12.5108 14.5233Z" fill="#2B710A"/>
<path fill-rule="evenodd" clip-rule="evenodd" d="M12.1722 12.835C12.6414 12.2216 13.1135 11.6044 13.5957 11.0853C14.9727 9.60271 15.6833 8.34429 15.8004 7.48151C16.0298 7.48927 16.2173 7.56069 16.3574 7.6939C17.0329 8.33605 16.3515 10.171 14.0877 12.6085C13.5572 13.1796 13.0324 13.8535 12.5108 14.5233C10.8065 16.7119 9.13693 18.8558 7.4191 17.2226C6.61021 16.4535 6.63924 15.6538 7.11323 14.8312C7.1987 14.9438 7.30026 15.0566 7.4191 15.1696C9.13693 16.8028 10.6389 14.8394 12.1722 12.835Z" fill="#419C15"/>
<path d="M14.0019 8.64864C14.2872 9.1186 12.6214 11.3175 10.8568 12.7545C9.76708 13.642 7.81321 15.2181 7.74005 14.5409C7.51085 14.272 9.77398 12.3049 10.7554 11.5228C12.8859 9.82496 13.577 8.29742 14.0019 8.64864Z" fill="#5FCF2A"/>
<path fill-rule="evenodd" clip-rule="evenodd" d="M9.88429 12.8147C9.96353 12.8949 9.96353 13.0249 9.88429 13.105C9.57753 13.4154 9.32191 13.6161 9.01045 13.8606C8.89911 13.948 8.78064 14.041 8.65014 14.1467C8.56263 14.2175 8.43494 14.2031 8.36494 14.1146C8.29493 14.0261 8.30912 13.8969 8.39662 13.826C8.53811 13.7115 8.66231 13.614 8.77616 13.5246C9.07989 13.2861 9.30986 13.1056 9.59733 12.8147C9.67657 12.7345 9.80504 12.7345 9.88429 12.8147Z" fill="#A0EA29"/>
<path d="M16.7622 15.0006C14.1301 17.0244 11.7286 21.0227 9.4763 18.0241C7.22402 15.0256 11.6747 13.7553 14.3068 11.7315C16.9388 9.70777 18.3298 9.79271 19.0078 10.6954C19.6859 11.5982 19.3943 12.9768 16.7622 15.0006Z" fill="#58C923"/>
<path fill-rule="evenodd" clip-rule="evenodd" d="M11.1843 19.5118C10.441 19.4924 9.7649 19.087 9.1532 18.2726C8.54149 17.4582 8.33648 16.6906 8.51708 15.9608C8.69117 15.2573 9.20285 14.6835 9.80536 14.1925C10.4124 13.6979 11.1716 13.2407 11.9182 12.7935C11.9363 12.7827 11.9545 12.7718 11.9726 12.7609C12.7118 12.3182 13.4408 11.8816 14.0612 11.4046C15.3966 10.3779 16.4674 9.84467 17.3282 9.71027C17.7651 9.64206 18.1579 9.67509 18.5024 9.80841C18.8482 9.94226 19.1214 10.168 19.3309 10.447C19.5405 10.726 19.6823 11.0527 19.7172 11.4257C19.7519 11.7972 19.6781 12.189 19.4962 12.5966C19.1376 13.3998 18.3431 14.3007 17.0077 15.3275C16.3874 15.8045 15.7764 16.3982 15.1568 17.0003L15.1112 17.0446C14.4855 17.6526 13.8467 18.2703 13.2132 18.7295C12.5843 19.1854 11.9008 19.5305 11.1843 19.5118ZM14.8836 16.6964C15.497 16.1004 16.1228 15.4922 16.7622 15.0006C19.3943 12.9768 19.6859 11.5982 19.0078 10.6954C18.3298 9.79271 16.9388 9.70778 14.3068 11.7315C13.6674 12.2232 12.9206 12.6703 12.1888 13.1086C9.90789 14.4745 7.77116 15.754 9.4763 18.0242C11.1814 20.2943 12.9721 18.5541 14.8836 16.6964Z" fill="#2B710A"/>
<path fill-rule="evenodd" clip-rule="evenodd" d="M14.4778 15.8753C15.0912 15.2792 15.717 14.671 16.3564 14.1794C18.3923 12.6141 19.0279 11.4347 18.8976 10.5629C18.9363 10.6048 18.973 10.649 19.0079 10.6954C19.6859 11.5982 19.3943 12.9768 16.7622 15.0006C16.1228 15.4922 15.497 16.1004 14.8837 16.6964C12.9722 18.5541 11.1815 20.2943 9.47632 18.0241C9.20892 17.6681 9.03599 17.3365 8.9433 17.025C8.98306 17.0837 9.02544 17.143 9.07051 17.203C10.7756 19.4731 12.5663 17.7329 14.4778 15.8753Z" fill="#4CAA1F"/>
<path d="M16.1515 11.8741C16.4368 12.344 12.683 15.0129 12.683 15.0129C12.683 15.0129 9.59247 16.8629 9.36327 16.5939C9.13407 16.325 10.5438 14.9002 11.6684 14.3498C14.6297 12.9005 15.7266 11.5228 16.1515 11.8741Z" fill="#79E645"/>
<path fill-rule="evenodd" clip-rule="evenodd" d="M12.959 14.089C13.0259 14.18 13.0072 14.3086 12.9173 14.3763C12.6644 14.5666 12.2149 14.8266 11.7774 15.0797C11.7443 15.0988 11.7113 15.1179 11.6784 15.1369C11.196 15.4162 10.7529 15.6771 10.5535 15.8464C10.4677 15.9194 10.3397 15.9081 10.2677 15.8212C10.1956 15.7344 10.2068 15.6049 10.2926 15.532C10.527 15.3329 11.011 15.0503 11.4769 14.7805C11.5057 14.7638 11.5346 14.7471 11.5633 14.7305C12.0135 14.47 12.4429 14.2216 12.6751 14.0469C12.765 13.9792 12.8921 13.9981 12.959 14.089Z" fill="white"/>
<path d="M12.8408 13.2593C12.8408 13.4058 12.7234 13.5245 12.5787 13.5245C12.4339 13.5245 12.3166 13.4058 12.3166 13.2593C12.3166 13.1129 12.4339 12.9941 12.5787 12.9941C12.7234 12.9941 12.8408 13.1129 12.8408 13.2593Z" fill="#47A21D"/>
<path d="M14.588 12.5522C14.588 12.6986 14.4707 12.8173 14.3259 12.8173C14.1812 12.8173 14.0638 12.6986 14.0638 12.5522C14.0638 12.4057 14.1812 12.287 14.3259 12.287C14.4707 12.287 14.588 12.4057 14.588 12.5522Z" fill="#47A21D"/>
<path d="M15.6364 11.4915C15.6364 11.6379 15.5191 11.7567 15.3743 11.7567C15.2296 11.7567 15.1122 11.6379 15.1122 11.4915C15.1122 11.345 15.2296 11.2263 15.3743 11.2263C15.5191 11.2263 15.6364 11.345 15.6364 11.4915Z" fill="#47A21D"/>
<path d="M11.2683 14.6736C11.2683 14.82 11.1509 14.9387 11.0062 14.9387C10.8614 14.9387 10.7441 14.82 10.7441 14.6736C10.7441 14.5271 10.8614 14.4084 11.0062 14.4084C11.1509 14.4084 11.2683 14.5271 11.2683 14.6736Z" fill="#47A21D"/>
<path d="M13.7144 12.6406C13.7144 12.7382 13.6362 12.8174 13.5397 12.8174C13.4432 12.8174 13.365 12.7382 13.365 12.6406C13.365 12.543 13.4432 12.4638 13.5397 12.4638C13.6362 12.4638 13.7144 12.543 13.7144 12.6406Z" fill="#47A21D"/>
<path d="M13.365 13.5244C13.365 13.6221 13.2867 13.7012 13.1902 13.7012C13.0937 13.7012 13.0155 13.6221 13.0155 13.5244C13.0155 13.4268 13.0937 13.3477 13.1902 13.3477C13.2867 13.3477 13.365 13.4268 13.365 13.5244Z" fill="#47A21D"/>
<path d="M14.9375 11.7567C14.9375 11.8543 14.8593 11.9335 14.7628 11.9335C14.6663 11.9335 14.5881 11.8543 14.5881 11.7567C14.5881 11.659 14.6663 11.5799 14.7628 11.5799C14.8593 11.5799 14.9375 11.659 14.9375 11.7567Z" fill="#47A21D"/>
<path d="M16.3353 11.0495C16.3353 11.1472 16.2571 11.2263 16.1606 11.2263C16.0641 11.2263 15.9858 11.1472 15.9858 11.0495C15.9858 10.9519 16.0641 10.8727 16.1606 10.8727C16.2571 10.8727 16.3353 10.9519 16.3353 11.0495Z" fill="#47A21D"/>
<path d="M10.3946 14.9387C10.3946 15.0364 10.3164 15.1155 10.2199 15.1155C10.1234 15.1155 10.0452 15.0364 10.0452 14.9387C10.0452 14.8411 10.1234 14.762 10.2199 14.762C10.3164 14.762 10.3946 14.8411 10.3946 14.9387Z" fill="#47A21D"/>
<path d="M11.6177 14.0548C11.6177 14.1525 11.5395 14.2316 11.443 14.2316C11.3465 14.2316 11.2682 14.1525 11.2682 14.0548C11.2682 13.9572 11.3465 13.8781 11.443 13.8781C11.5395 13.8781 11.6177 13.9572 11.6177 14.0548Z" fill="#47A21D"/>
<path d="M12.4913 13.878C12.4913 14.0733 12.3349 14.2316 12.1419 14.2316C11.9489 14.2316 11.7924 14.0733 11.7924 13.878C11.7924 13.6828 11.9489 13.5245 12.1419 13.5245C12.3349 13.5245 12.4913 13.6828 12.4913 13.878Z" fill="#47A21D"/>
<path d="M13.9005 16.2447C13.9005 16.4147 13.7642 16.5526 13.5961 16.5526C13.428 16.5526 13.2917 16.4147 13.2917 16.2447C13.2917 16.0746 13.428 15.9367 13.5961 15.9367C13.7642 15.9367 13.9005 16.0746 13.9005 16.2447Z" fill="#79E745"/>
<path d="M12.683 18.2976C12.683 18.4676 12.5467 18.6055 12.3786 18.6055C12.2105 18.6055 12.0743 18.4676 12.0743 18.2976C12.0743 18.1275 12.2105 17.9896 12.3786 17.9896C12.5467 17.9896 12.683 18.1275 12.683 18.2976Z" fill="#79E745"/>
<path d="M15.9295 15.2182C15.9295 15.3882 15.7933 15.5261 15.6252 15.5261C15.4571 15.5261 15.3208 15.3882 15.3208 15.2182C15.3208 15.0481 15.4571 14.9102 15.6252 14.9102C15.7933 14.9102 15.9295 15.0481 15.9295 15.2182Z" fill="#79E745"/>
<path d="M18.1615 13.3705C18.1615 13.5406 18.0252 13.6784 17.8572 13.6784C17.6891 13.6784 17.5528 13.5406 17.5528 13.3705C17.5528 13.2004 17.6891 13.0626 17.8572 13.0626C18.0252 13.0626 18.1615 13.2004 18.1615 13.3705Z" fill="#79E745"/>
<path d="M14.5091 16.5526C14.5091 16.666 14.4183 16.7579 14.3062 16.7579C14.1942 16.7579 14.1033 16.666 14.1033 16.5526C14.1033 16.4392 14.1942 16.3473 14.3062 16.3473C14.4183 16.3473 14.5091 16.4392 14.5091 16.5526Z" fill="#79E745"/>
<path d="M16.5383 14.7049C16.5383 14.8183 16.4474 14.9102 16.3354 14.9102C16.2233 14.9102 16.1324 14.8183 16.1324 14.7049C16.1324 14.5915 16.2233 14.4996 16.3354 14.4996C16.4474 14.4996 16.5383 14.5915 16.5383 14.7049Z" fill="#79E745"/>
<path d="M15.3208 15.7314C15.3208 15.9581 15.1391 16.142 14.915 16.142C14.6908 16.142 14.5092 15.9581 14.5092 15.7314C14.5092 15.5046 14.6908 15.3208 14.915 15.3208C15.1391 15.3208 15.3208 15.5046 15.3208 15.7314Z" fill="#79E745"/>
<path d="M17.147 14.0891C17.147 14.3158 16.9653 14.4997 16.7411 14.4997C16.517 14.4997 16.3353 14.3158 16.3353 14.0891C16.3353 13.8623 16.517 13.6785 16.7411 13.6785C16.9653 13.6785 17.147 13.8623 17.147 14.0891Z" fill="#79E745"/>
<path d="M13.4946 17.3737C13.4946 17.6005 13.3129 17.7843 13.0888 17.7843C12.8647 17.7843 12.683 17.6005 12.683 17.3737C12.683 17.147 12.8647 16.9631 13.0888 16.9631C13.3129 16.9631 13.4946 17.147 13.4946 17.3737Z" fill="#79E745"/>
</svg>
