<svg width="128" height="128" viewBox="0 0 128 128" fill="none" xmlns="http://www.w3.org/2000/svg">
<g filter="url(#filter0_i_174_471)">
<circle cx="64" cy="64" r="58.6218" stroke="white" stroke-width="10.7563"/>
</g>
<g filter="url(#filter1_i_174_471)">
<mask id="path-2-inside-1_174_471" fill="white">
<path d="M119.527 45.8875C122.464 44.9294 124.091 41.7591 122.88 38.9168C118.182 27.889 110.464 18.3644 100.564 11.4734C90.6651 4.58239 79.0532 0.650906 67.0804 0.0741081C63.9945 -0.0745587 61.5862 2.55194 61.7075 5.63907V5.63907C61.8288 8.7262 64.4355 11.0996 67.5182 11.3054C77.052 11.9418 86.273 15.1569 94.1724 20.6558C102.072 26.1546 108.288 33.6858 112.195 42.4056C113.459 45.225 116.589 46.8456 119.527 45.8875V45.8875Z"/>
</mask>
<path d="M119.527 45.8875C122.464 44.9294 124.091 41.7591 122.88 38.9168C118.182 27.889 110.464 18.3644 100.564 11.4734C90.6651 4.58239 79.0532 0.650906 67.0804 0.0741081C63.9945 -0.0745587 61.5862 2.55194 61.7075 5.63907V5.63907C61.8288 8.7262 64.4355 11.0996 67.5182 11.3054C77.052 11.9418 86.273 15.1569 94.1724 20.6558C102.072 26.1546 108.288 33.6858 112.195 42.4056C113.459 45.225 116.589 46.8456 119.527 45.8875V45.8875Z" stroke="#8587E6" stroke-width="21.5126" mask="url(#path-2-inside-1_174_471)"/>
</g>
<defs>
<filter id="filter0_i_174_471" x="0" y="0" width="128" height="130.667" filterUnits="userSpaceOnUse" color-interpolation-filters="sRGB">
<feFlood flood-opacity="0" result="BackgroundImageFix"/>
<feBlend mode="normal" in="SourceGraphic" in2="BackgroundImageFix" result="shape"/>
<feColorMatrix in="SourceAlpha" type="matrix" values="0 0 0 0 0 0 0 0 0 0 0 0 0 0 0 0 0 0 127 0" result="hardAlpha"/>
<feOffset dy="2.66667"/>
<feGaussianBlur stdDeviation="1.33333"/>
<feComposite in2="hardAlpha" operator="arithmetic" k2="-1" k3="1"/>
<feColorMatrix type="matrix" values="0 0 0 0 0 0 0 0 0 0 0 0 0 0 0 0 0 0 0.15 0"/>
<feBlend mode="normal" in2="shape" result="effect1_innerShadow_174_471"/>
</filter>
<filter id="filter1_i_174_471" x="61.7031" y="0.0680847" width="61.5805" height="48.7627" filterUnits="userSpaceOnUse" color-interpolation-filters="sRGB">
<feFlood flood-opacity="0" result="BackgroundImageFix"/>
<feBlend mode="normal" in="SourceGraphic" in2="BackgroundImageFix" result="shape"/>
<feColorMatrix in="SourceAlpha" type="matrix" values="0 0 0 0 0 0 0 0 0 0 0 0 0 0 0 0 0 0 127 0" result="hardAlpha"/>
<feOffset dy="2.66667"/>
<feGaussianBlur stdDeviation="1.33333"/>
<feComposite in2="hardAlpha" operator="arithmetic" k2="-1" k3="1"/>
<feColorMatrix type="matrix" values="0 0 0 0 0 0 0 0 0 0 0 0 0 0 0 0 0 0 0.25 0"/>
<feBlend mode="normal" in2="shape" result="effect1_innerShadow_174_471"/>
</filter>
</defs>
</svg>
